<?xml version="1.0" standalone="no"?>
<!DOCTYPE svg PUBLIC "-//W3C//DTD SVG 1.1//EN" "http://www.w3.org/Graphics/SVG/1.1/DTD/svg11.dtd" >
<svg xmlns="http://www.w3.org/2000/svg">
<metadata></metadata>
<defs>
<font id="pauzafot_bookregular" horiz-adv-x="1011" >
<font-face units-per-em="2048" ascent="1434" descent="-614" />
<missing-glyph horiz-adv-x="471" />
<glyph horiz-adv-x="2048" />
<glyph horiz-adv-x="2048" />
<glyph unicode="&#xd;" horiz-adv-x="2048" />
<glyph unicode=" "  horiz-adv-x="471" />
<glyph unicode="&#x09;" horiz-adv-x="471" />
<glyph unicode="&#xa0;" horiz-adv-x="471" />
<glyph unicode="!" horiz-adv-x="421" d="M121 82v14q0 35 24 58.5t58 23.5h16q34 0 58 -23t24 -57v-16q0 -34 -24 -58t-58 -24h-16q-34 0 -58 24t-24 58zM139 352v658q0 28 19 46.5t47 18.5h12q27 0 46.5 -19t19.5 -46v-658q0 -27 -19.5 -46t-46.5 -19h-12q-28 0 -47 18.5t-19 46.5z" />
<glyph unicode="&#x22;" horiz-adv-x="620" d="M74 713l88 248q9 25 33.5 36t50.5 2l10 -4q26 -9 38 -33.5t3 -50.5l-88 -247q-9 -25 -33.5 -36.5t-50.5 -2.5l-12 4q-25 9 -36.5 33.5t-2.5 50.5zM324 713l88 248q9 25 33.5 36t50.5 2l12 -4q25 -9 36.5 -33.5t2.5 -50.5l-88 -247q-9 -25 -33.5 -36.5t-50.5 -2.5l-10 4 q-26 9 -38 33.5t-3 50.5z" />
<glyph unicode="#" horiz-adv-x="927" d="M70 315v13q0 28 18.5 46.5t46.5 18.5h78v215h-78q-27 0 -46 19.5t-19 46.5v12q0 28 18.5 47t46.5 19h78v186q0 28 19 47t47 19h12q28 0 46.5 -19t18.5 -47v-186h215v186q0 28 19 47t47 19h12q28 0 47 -19t19 -47v-186h78q28 0 46.5 -19t18.5 -47v-12q0 -27 -19 -46.5 t-46 -19.5h-78v-215h78q28 0 46.5 -18.5t18.5 -46.5v-13q0 -27 -19 -46t-46 -19h-78v-184q0 -28 -19 -47t-47 -19h-12q-28 0 -47 19t-19 47v184h-215v-184q0 -28 -18.5 -47t-46.5 -19h-12q-28 0 -47 19t-19 47v184h-78q-27 0 -46 19t-19 46zM356 393h215v215h-215v-215z" />
<glyph unicode="$" horiz-adv-x="757" d="M66 236q6 23 28 36l17 9q26 15 53 3.5t39 -42.5q13 -30 46 -62t83 -41v359l-113 63q-53 30 -81 67.5t-34 69.5t-4 76q3 85 68 148.5t164 76.5v88q0 66 53 66t53 -66v-88q82 -12 130 -50.5t59 -71.5q12 -30 0.5 -53.5t-37.5 -32.5l-12 -5q-28 -8 -42.5 -2.5t-29.5 25.5 q-2 2 -9 12t-12 16t-18 13.5t-29 11.5v-260l113 -63q70 -40 106 -107t31 -151q-5 -90 -76.5 -169t-173.5 -104v-92q0 -66 -53 -66t-53 66v86q-100 11 -168.5 68.5t-93.5 119.5q-10 23 -4 46zM244 768q-3 -35 14.5 -54t65.5 -46l8 -6v198q-39 -11 -63.5 -36.5t-24.5 -55.5z M438 152q44 22 74 60.5t31 76.5q5 83 -105 149v-286z" />
<glyph unicode="%" horiz-adv-x="1017" d="M121 733v150q0 65 45.5 110t109.5 45q65 0 110.5 -45.5t45.5 -109.5v-150q0 -63 -46 -108t-110 -45t-109.5 45t-45.5 108zM231 733q0 -19 13 -31t32 -12t32.5 12.5t13.5 30.5v150q0 19 -13.5 32t-32.5 13t-32 -13t-13 -32v-150zM258 82l383 924q9 23 31 32t47 0l8 -4 q23 -7 33.5 -30.5t-0.5 -45.5l-381 -925q-11 -22 -33 -32t-43 -1l-12 4q-22 9 -32 32t-1 46zM586 156v149q0 63 45.5 108.5t109.5 45.5t110 -45.5t46 -108.5v-149q0 -64 -45.5 -110t-110.5 -46q-64 0 -109.5 45.5t-45.5 110.5zM696 156q0 -19 13 -32t32 -13t32 13t13 32v149 q0 19 -13 31t-32 12t-32 -12t-13 -31v-149z" />
<glyph unicode="&#x26;" horiz-adv-x="1347" d="M158 410q0 64 15 117t35 88.5t62.5 75t73.5 61.5t92 63q-36 42 -56.5 68.5t-47.5 69.5t-40 86.5t-13 90.5q0 130 91 217t228 87q136 0 225.5 -88t89.5 -218q0 -151 -159 -260q-74 -46 -109 -71l336 -418q80 127 80 266q0 28 18.5 47t46.5 19h13q27 0 46 -19.5t19 -46.5 q0 -101 -34 -202.5t-97 -176.5l121 -145q18 -21 18 -46t-18 -46l-8 -9q-19 -20 -51.5 -20t-49.5 20l-112 140q-3 -3 -21 -20t-26 -24t-28.5 -24.5t-36.5 -26.5t-40.5 -23t-49 -22t-54.5 -16.5t-64.5 -12t-72.5 -3.5q-206 0 -314 114t-108 308zM309 414q0 -134 69 -211.5 t200 -77.5q84 0 150 29t157 110l-365 453q-7 -5 -21 -14q-95 -66 -128 -104q-62 -71 -62 -185zM432 1133q0 -49 27.5 -98.5t101.5 -141.5l78 53q63 44 97 84.5t34 97.5q0 74 -49 123t-123 49q-73 0 -119.5 -46.5t-46.5 -120.5z" />
<glyph unicode="'" horiz-adv-x="370" d="M74 713l88 248q9 25 33.5 36t50.5 2l10 -4q26 -9 38 -33.5t3 -50.5l-88 -247q-9 -25 -33.5 -36.5t-50.5 -2.5l-12 4q-25 9 -36.5 33.5t-2.5 50.5z" />
<glyph unicode="(" horiz-adv-x="507" d="M121 502q0 126 19.5 237.5t51 187t63 125.5t62.5 78q20 17 48 15.5t45 -21.5l8 -10q19 -20 17.5 -46.5t-23.5 -45.5q-51 -46 -99.5 -192.5t-48.5 -327.5q0 -183 48.5 -329.5t99.5 -192.5q22 -19 23.5 -46t-17.5 -47l-8 -10q-17 -20 -45 -21.5t-48 15.5q-31 28 -62.5 78 t-63 126t-51 188t-19.5 239z" />
<glyph unicode=")" horiz-adv-x="507" d="M73.5 -66q1.5 27 22.5 46q52 46 101 193t49 329q0 181 -49 327.5t-101 192.5q-21 19 -22.5 45.5t16.5 46.5l8 10q19 20 45.5 21.5t46.5 -15.5q31 -28 62.5 -78t63 -125.5t51.5 -187t20 -237.5q0 -127 -20 -239t-51.5 -188t-63 -126t-62.5 -78q-20 -17 -46.5 -15.5 t-45.5 21.5l-8 10q-18 20 -16.5 47z" />
<glyph unicode="*" horiz-adv-x="665" d="M70 1012l4 10q18 45 63 31l142 -49v157q0 19 14.5 32t34.5 13h10q22 0 34.5 -13.5t12.5 -35.5v-153l147 51q20 6 40 -4.5t24 -30.5l2 -8q5 -22 -5 -40t-30 -24l-141 -47l88 -121q14 -19 11.5 -39t-19.5 -32l-8 -7q-18 -12 -39 -6.5t-33 23.5l-88 119l-88 -123 q-13 -17 -34 -20.5t-36 7.5l-8 9q-38 30 -12 67l90 123l-144 49q-22 7 -31 25t-1 37z" />
<glyph unicode="+" horiz-adv-x="1097" d="M109 494v14q0 28 18.5 46.5t46.5 18.5h303v304q0 28 19 46.5t47 18.5h12q28 0 47 -18.5t19 -46.5v-304h303q28 0 46.5 -18.5t18.5 -46.5v-12q0 -28 -18.5 -47t-46.5 -19h-303v-303q0 -28 -19 -47t-47 -19h-14q-26 0 -45 19t-19 45v305h-305q-26 0 -44.5 19t-18.5 45z" />
<glyph unicode="," horiz-adv-x="370" d="M74 -113l88 248q9 26 33.5 38t50.5 3l10 -4q26 -9 38 -34t3 -50l-88 -248q-9 -26 -33.5 -38t-50.5 -3l-12 4q-25 9 -36.5 33.5t-2.5 50.5z" />
<glyph unicode="-" horiz-adv-x="733" d="M80 496v12q0 28 18.5 46.5t46.5 18.5h443q28 0 46.5 -18.5t18.5 -46.5v-12q0 -28 -18.5 -47t-46.5 -19h-443q-28 0 -46.5 19t-18.5 47z" />
<glyph unicode="." horiz-adv-x="352" d="M86 82v14q0 35 24 58.5t58 23.5h14q35 0 59.5 -23.5t24.5 -58.5v-14q0 -34 -24 -58t-58 -24h-16q-34 0 -58 24t-24 58z" />
<glyph unicode="/" horiz-adv-x="663" d="M47 -88l434 1227q9 26 33.5 38t50.5 3l13 -4q25 -9 36 -33.5t2 -50.5l-434 -1227q-9 -26 -33.5 -38t-50.5 -3l-12 4q-25 9 -36.5 33.5t-2.5 50.5z" />
<glyph unicode="0" horiz-adv-x="886" d="M121 322v395q0 133 94.5 227t226.5 94q134 0 229 -94t95 -227v-395q0 -132 -95 -227t-227 -95q-133 0 -228 95t-95 227zM264 322q0 -74 52.5 -126.5t125.5 -52.5q75 0 128 52.5t53 126.5v395q0 74 -53 126t-128 52q-74 0 -126 -52.5t-52 -125.5v-395z" />
<glyph unicode="1" horiz-adv-x="608" d="M120.5 835q2.5 27 24.5 44l181 145q17 14 43 14h12q28 0 46.5 -18.5t18.5 -46.5v-907q0 -28 -18.5 -47t-46.5 -19h-12q-28 0 -47 19t-19 47v755l-67 -53q-22 -18 -48.5 -15.5t-44.5 23.5l-8 10q-17 22 -14.5 49z" />
<glyph unicode="2" horiz-adv-x="886" d="M102 66v12q0 5 1 10t3.5 10t4 7.5t6.5 8.5t6 7l7 7l7 7l412 451q55 62 55 131q0 73 -52 125.5t-126 52.5q-70 0 -119 -44t-57 -99q-5 -28 -22.5 -47t-43.5 -19h-12q-28 0 -47.5 19.5t-18.5 46.5q7 124 104 205t216 81q134 0 228 -94t94 -227q0 -119 -103 -238l-299 -336 h373q27 0 46 -19t19 -46v-12q0 -28 -19 -47t-46 -19h-551q-27 0 -46.5 19.5t-19.5 46.5z" />
<glyph unicode="3" horiz-adv-x="886" d="M123 281q-3 28 17 49.5t48 21.5h13q24 0 42 -18.5t23 -46.5q9 -60 58 -102t118 -42q68 0 123.5 50.5t55.5 111.5v10q0 66 -53.5 118t-125.5 52h-47q-28 0 -46.5 19t-18.5 47v12q0 27 19 46.5t46 19.5h43q54 0 99 39.5t45 93.5q0 59 -39.5 96t-98.5 37q-44 0 -74 -10 t-45 -28.5t-20 -30t-10 -29.5q-11 -31 -39.5 -41.5t-54.5 6.5l-17 10q-39 22 -20 84q8 29 27 58.5t51 58.5t83.5 47t114.5 18q119 0 202 -79t83 -197q0 -117 -88 -199q49 -37 88 -103t39 -136q0 -134 -95 -229t-229 -95q-125 0 -215 82t-102 199z" />
<glyph unicode="4" horiz-adv-x="886" d="M106 309l330 695q12 24 39.5 31.5t50.5 -5.5l11 -6q24 -13 30.5 -39.5t-4.5 -50.5l-274 -576h209v150q0 28 18.5 46.5t46.5 18.5h12q27 0 46.5 -19t19.5 -46v-150h78q27 0 46 -19t19 -46v-12q0 -27 -19 -46.5t-46 -19.5h-78v-149q0 -27 -19.5 -46.5t-46.5 -19.5h-12 q-28 0 -46.5 19t-18.5 47v149h-330q-34 0 -54.5 31.5t-7.5 62.5z" />
<glyph unicode="5" horiz-adv-x="886" d="M131 221q5 24 27 37l16 10q25 15 52 5t40 -40q15 -30 58 -60t104 -30q74 0 126.5 53t51.5 128v53q0 74 -50.5 126t-123.5 52q-53 0 -94.5 -27.5t-63.5 -74.5q-18 -41 -59 -41h-12q-27 0 -46.5 19t-19.5 46v488q0 28 19 46.5t47 18.5h432q28 0 46.5 -18.5t18.5 -46.5v-13 q0 -28 -18.5 -46.5t-46.5 -18.5h-354v-228q70 39 151 39q133 0 225.5 -93.5t92.5 -227.5v-53q1 -133 -93.5 -228.5t-228.5 -95.5q-109 0 -186.5 56t-104.5 120q-11 21 -6 45z" />
<glyph unicode="6" horiz-adv-x="886" d="M121 322v36q0 68 24 125l250 523q10 24 37.5 31t50.5 -7l11 -4q24 -13 31 -39.5t-5 -50.5l-143 -291q43 17 90 17q128 0 213.5 -85.5t85.5 -218.5v-36q0 -133 -95 -227.5t-227 -94.5q-134 0 -228.5 94.5t-94.5 227.5zM264 322q0 -74 52.5 -126.5t125.5 -52.5 q75 0 128 52.5t53 126.5v36q0 74 -53 126.5t-128 52.5q-73 0 -125.5 -52.5t-52.5 -126.5v-36z" />
<glyph unicode="7" horiz-adv-x="886" d="M121 805v160q0 28 18.5 46.5t46.5 18.5h514q28 0 47 -18.5t19 -46.5v-50q0 -12 -2 -18l-295 -860q-9 -25 -35.5 -33t-52.5 2l-16 6q-18 8 -27 32.5t0 49.5l270 793h-344v-82q0 -27 -19 -46.5t-46 -19.5h-13q-28 0 -46.5 19t-18.5 47z" />
<glyph unicode="8" horiz-adv-x="886" d="M121 322v6q0 76 32.5 141.5t90.5 110.5q-90 80 -90 192q0 110 83.5 188t202.5 78q120 0 203.5 -78t83.5 -188t-86 -190q58 -45 91.5 -112t33.5 -142v-6q0 -132 -95 -227t-227 -95q-133 0 -228 95t-95 227zM264 322q0 -74 52.5 -126.5t127.5 -52.5q73 0 125 52.5t54 126.5 v6q1 73 -52 125.5t-127 52.5q-75 0 -127.5 -52t-52.5 -126v-6zM297 762q0 -55 42 -94t101 -39q60 0 102 39t42 94q0 57 -42 96t-102 39q-59 0 -101 -39t-42 -96z" />
<glyph unicode="9" horiz-adv-x="886" d="M121 682v35q0 133 94.5 228t226.5 95q134 0 229 -95t95 -228v-35q0 -67 -25 -127l-249 -522q-10 -24 -38 -31.5t-51 6.5l-10 4q-24 13 -31 39.5t5 50.5l143 291q-40 -16 -90 -16q-128 0 -213.5 86t-85.5 219zM264 682q0 -75 52.5 -127.5t127.5 -52.5q74 0 126.5 52.5 t52.5 127.5v35q0 74 -53 127t-126 53q-75 0 -127.5 -53t-52.5 -127v-35z" />
<glyph unicode=":" horiz-adv-x="352" d="M86 82v14q0 35 24 58.5t58 23.5h14q35 0 59.5 -23.5t24.5 -58.5v-14q0 -34 -24 -58t-58 -24h-16q-34 0 -58 24t-24 58zM86 494v16q0 34 24 58t58 24h14q35 0 59.5 -24t24.5 -58v-16q0 -34 -24 -58t-58 -24h-16q-34 0 -58 24t-24 58z" />
<glyph unicode=";" horiz-adv-x="387" d="M90 -113l88 248q9 26 33.5 38t50.5 3l10 -4q26 -9 38 -34t3 -50l-88 -248q-9 -26 -33.5 -38t-50.5 -3l-12 4q-25 9 -36.5 33.5t-2.5 50.5zM137 494v16q0 34 24 58t58 24h17q34 0 57.5 -24t23.5 -58v-16q0 -34 -23.5 -58t-57.5 -24h-17q-34 0 -58 24t-24 58z" />
<glyph unicode="&#x3c;" horiz-adv-x="1185" d="M44 501.5q0 29.5 32 55.5l342 277q22 18 48 15t44 -24l8 -10q18 -22 15.5 -48.5t-23.5 -43.5l-203 -150h723q28 0 47 -18.5t19 -46.5v-12q0 -28 -19 -47t-47 -19h-723l203 -149q21 -17 23.5 -44t-15.5 -49l-8 -10q-18 -21 -44 -23.5t-48 15.5l-342 276q-32 26 -32 55.5z " />
<glyph unicode="=" horiz-adv-x="815" d="M121 352v13q0 28 18.5 46.5t46.5 18.5h443q28 0 46.5 -18.5t18.5 -46.5v-13q0 -28 -18.5 -46.5t-46.5 -18.5h-443q-28 0 -46.5 18.5t-18.5 46.5zM121 639v12q0 28 18.5 47t46.5 19h443q28 0 46.5 -19t18.5 -47v-12q0 -28 -18.5 -47t-46.5 -19h-443q-28 0 -46.5 19 t-18.5 47z" />
<glyph unicode="&#x3e;" horiz-adv-x="1185" d="M90 496v12q0 28 19 46.5t47 18.5h725l-203 150q-23 17 -25.5 44t15.5 48l8 10q18 21 44 24t48 -15l342 -277q32 -26 32 -55.5t-32 -55.5l-342 -276q-22 -18 -48 -15.5t-44 23.5l-8 10q-18 21 -15.5 48.5t25.5 44.5l203 149h-725q-28 0 -47 19t-19 47z" />
<glyph unicode="?" horiz-adv-x="737" d="M43 752q0 134 94.5 228.5t227.5 94.5t228 -94.5t95 -228.5q0 -132 -95 -227t-228 -95v-78q0 -28 -19 -46.5t-47 -18.5h-12q-27 0 -46.5 19t-19.5 46v156q0 27 19.5 46t46.5 19h78q75 0 127.5 52.5t52.5 126.5q0 75 -52.5 127.5t-127.5 52.5q-74 0 -126.5 -52.5 t-52.5 -127.5q0 -27 -19 -46.5t-46 -19.5h-12q-27 0 -46.5 19.5t-19.5 46.5zM205 82v14q0 35 24 58.5t58 23.5h14q34 0 58 -23t24 -57v-16q0 -34 -24 -58t-58 -24h-14q-34 0 -58 24t-24 58z" />
<glyph unicode="@" horiz-adv-x="1656" d="M147 -143v1218q0 149 105 254t254 105h717q119 0 202.5 -83.5t83.5 -203.5l-2 -862q0 -119 -83 -202t-203 -83h-152q-28 0 -46.5 19t-18.5 47v38q-3 -4 -9 -11t-27.5 -25t-45.5 -32t-63.5 -25t-82.5 -11q-111 0 -190.5 86.5t-79.5 194.5v471q0 104 74 178t178 74h327 q26 0 46 -20t20 -48v-793h68q60 0 102.5 41.5t42.5 100.5v862q0 60 -40.5 101.5t-100.5 41.5h-717q-89 0 -152 -63t-63 -152v-1218q0 -29 21 -50.5t50 -21.5h795q28 0 47 -19t19 -47v-12q0 -28 -19 -46.5t-47 -18.5h-795q-89 0 -152 63t-63 152zM649 270q0 -45 43 -86 t92 -41q93 0 158.5 57.5t65.5 155.5v504h-250q-44 0 -76.5 -32t-32.5 -76v-482z" />
<glyph unicode="A" horiz-adv-x="944" d="M27 84l374 1300q16 52 72 52q54 0 70 -52l375 -1300q2 -8 2 -16q0 -17 -10 -34q-15 -24 -42 -30l-12 -2q-8 -2 -15 -2q-17 0 -33 10q-22 14 -30 41l-104 379h-404l-104 -379q-6 -27 -29 -41q-16 -10 -34 -10q-7 0 -15 2l-12 2q-28 6 -42 30q-10 16 -9 33q0 9 2 17z M309 573h326l-135 492l-27 117l-29 -117z" />
<glyph unicode="B" horiz-adv-x="1226" d="M211 66v1302q0 28 18.5 47t46.5 19h365q149 0 253.5 -105t104.5 -254q0 -80 -37 -158t-92 -102q83 -23 142 -116.5t59 -196.5v-215q0 -119 -84.5 -203t-202.5 -84h-508q-28 0 -46.5 19t-18.5 47zM354 143h430q60 0 102 42t42 102v215q0 89 -63 152t-152 63h-359v-574z M354 860h287q89 0 152 63t63 152t-63 152t-152 63h-287v-430z" />
<glyph unicode="C" horiz-adv-x="1077" d="M156 287v788q0 149 104.5 254t253.5 105h365q28 0 46.5 -19t18.5 -47v-12q0 -28 -18.5 -47t-46.5 -19h-365q-89 0 -152 -63t-63 -152v-788q0 -60 41.5 -102t101.5 -42h437q28 0 46.5 -18.5t18.5 -46.5v-12q0 -28 -18.5 -47t-46.5 -19h-437q-118 0 -202 84t-84 203z" />
<glyph unicode="D" horiz-adv-x="1226" d="M211 66v1302q0 28 18.5 47t46.5 19h437q149 0 253.5 -105t104.5 -254v-788q0 -119 -84.5 -203t-202.5 -84h-508q-28 0 -46.5 19t-18.5 47zM354 143h430q60 0 102 42t42 102v788q0 89 -63 152t-152 63h-359v-1147z" />
<glyph unicode="E" horiz-adv-x="1112" d="M211 66v1302q0 28 18.5 47t46.5 19h658q28 0 46.5 -19t18.5 -47v-12q0 -28 -18.5 -47t-46.5 -19h-580v-430h508q28 0 47 -18.5t19 -46.5v-13q0 -28 -19 -46.5t-47 -18.5h-508v-574h580q28 0 46.5 -18.5t18.5 -46.5v-12q0 -28 -18.5 -47t-46.5 -19h-658q-28 0 -46.5 19 t-18.5 47z" />
<glyph unicode="F" horiz-adv-x="1071" d="M211 66v1302q0 28 18.5 47t46.5 19h658q28 0 46.5 -19t18.5 -47v-12q0 -28 -18.5 -47t-46.5 -19h-580v-430h437q28 0 46.5 -18.5t18.5 -46.5v-13q0 -28 -18.5 -46.5t-46.5 -18.5h-437v-651q0 -28 -18.5 -47t-46.5 -19h-13q-28 0 -46.5 19t-18.5 47z" />
<glyph unicode="G" horiz-adv-x="1173" d="M156 287v788q0 149 104.5 254t253.5 105h436q28 0 47 -19t19 -47v-12q0 -28 -19 -47t-47 -19h-436q-89 0 -152 -63t-63 -152v-788q0 -60 41.5 -102t101.5 -42h430v574h-221q-28 0 -46.5 18.5t-18.5 46.5v13q0 28 18.5 46.5t46.5 18.5h299q28 0 47 -18.5t19 -46.5v-729 q0 -28 -19 -47t-47 -19h-71h-437q-118 0 -202 84t-84 203z" />
<glyph unicode="H" horiz-adv-x="1282" d="M211 66v1302q0 28 18.5 47t46.5 19h13q28 0 46.5 -19t18.5 -47v-508h574v508q0 28 18.5 47t46.5 19h13q28 0 46.5 -19t18.5 -47v-1302q0 -28 -18.5 -47t-46.5 -19h-13q-28 0 -46.5 19t-18.5 47v651h-574v-651q0 -28 -18.5 -47t-46.5 -19h-13q-28 0 -46.5 19t-18.5 47z " />
<glyph unicode="I" horiz-adv-x="565" d="M211 66v1302q0 28 18.5 47t46.5 19h13q28 0 46.5 -19t18.5 -47v-1302q0 -28 -18.5 -47t-46.5 -19h-13q-28 0 -46.5 19t-18.5 47z" />
<glyph unicode="J" horiz-adv-x="811" d="M47 66v12q0 28 19 46.5t47 18.5h77q118 0 202.5 84.5t84.5 202.5v938q0 28 19 47t47 19h12q28 0 47 -19t19 -47v-938q0 -178 -126 -304t-305 -126h-77q-28 0 -47 19t-19 47z" />
<glyph unicode="K" horiz-adv-x="1099" d="M211 66v1302q0 28 18.5 47t46.5 19h13q28 0 46.5 -19t18.5 -47v-580l596 625q19 20 45.5 20.5t46.5 -18.5l9 -8q21 -19 21 -47q0 -26 -19 -45l-469 -494l475 -708q14 -23 10 -49.5t-25 -43.5l-10 -8q-17 -13 -38 -13q-5 0 -11 1q-28 4 -41 27l-461 688l-129 -135v-514 q0 -28 -18.5 -47t-46.5 -19h-13q-28 0 -46.5 19t-18.5 47z" />
<glyph unicode="L" horiz-adv-x="1060" d="M211 66v1302q0 28 18.5 47t46.5 19h13q28 0 46.5 -19t18.5 -47v-1225h580q28 0 46.5 -18.5t18.5 -46.5v-12q0 -28 -18.5 -47t-46.5 -19h-658q-28 0 -46.5 19t-18.5 47z" />
<glyph unicode="M" horiz-adv-x="1390" d="M211 66v1302q0 28 18.5 47t46.5 19h7q35 0 61 -43l320 -480l30 -57l33 57l317 480q30 43 62 43h8q27 0 46.5 -19.5t19.5 -46.5v-1302q0 -27 -19.5 -46.5t-46.5 -19.5h-12q-28 0 -47 19t-19 47v1046l4 35l-18 -35l-236 -358q-6 -10 -16.5 -20.5t-32 -23t-43.5 -12.5 q-21 0 -42.5 12.5t-31.5 23t-16 20.5l-237 358l-19 39l6 -39v-1046q0 -28 -18.5 -47t-46.5 -19h-13q-28 0 -46.5 19t-18.5 47z" />
<glyph unicode="N" horiz-adv-x="1282" d="M211 66v1302q0 28 18.5 47t46.5 19h13q39 0 57 -37l567 -1026l25 -68l-10 68v997q0 28 18.5 47t46.5 19h13q28 0 46.5 -19t18.5 -47v-1302q0 -28 -18.5 -47t-46.5 -19h-9q-43 0 -61 37l-565 1020l-25 69l8 -69v-991q0 -28 -18.5 -47t-46.5 -19h-13q-28 0 -46.5 19 t-18.5 47z" />
<glyph unicode="O" horiz-adv-x="1171" d="M156 358v717q0 149 104.5 254t253.5 105h143q149 0 254 -105t105 -254v-717q0 -149 -105 -253.5t-254 -104.5h-143q-149 0 -253.5 104.5t-104.5 253.5zM299 358q0 -89 63 -152t152 -63h143q89 0 152 63t63 152v717q0 89 -63 152t-152 63h-143q-89 0 -152 -63t-63 -152 v-717z" />
<glyph unicode="P" horiz-adv-x="1157" d="M211 66v1302q0 28 18.5 47t46.5 19h437q149 0 253.5 -105t104.5 -254v-143q0 -149 -104.5 -254t-253.5 -105h-359v-507q0 -28 -18.5 -47t-46.5 -19h-13q-28 0 -46.5 19t-18.5 47zM354 717h359q89 0 152 63t63 152v143q0 89 -63 152t-152 63h-359v-573z" />
<glyph unicode="Q" horiz-adv-x="1253" d="M156 358v717q0 149 104.5 254t253.5 105h143q149 0 254 -105t105 -254v-717q0 -87 -37 -157l160 -152q21 -19 21 -47q0 -26 -19 -45l-8 -8q-19 -20 -46 -21h-1q-27 0 -46 19l-149 139q-99 -86 -234 -86h-143q-149 0 -253.5 104.5t-104.5 253.5zM299 358q0 -89 63 -152 t152 -63h143q70 0 129 43l-127 121q-20 19 -21 45.5t19 46.5l9 11q19 19 45.5 20t46.5 -18l108 -105q6 24 6 51v717q0 89 -63 152t-152 63h-143q-89 0 -152 -63t-63 -152v-717z" />
<glyph unicode="R" horiz-adv-x="1183" d="M211 66v1302q0 28 18.5 47t46.5 19h437q149 0 253.5 -105t104.5 -254v-143q0 -139 -93 -242t-230 -115l311 -462q14 -23 10 -49.5t-25 -43.5l-10 -8q-17 -13 -38 -13q-5 0 -11 1q-28 4 -41 27l-366 546h-224v-507q0 -28 -18.5 -47t-46.5 -19h-13q-28 0 -46.5 19t-18.5 47 zM354 717h359q89 0 152 63t63 152v143q0 89 -63 152t-152 63h-359v-573z" />
<glyph unicode="S" horiz-adv-x="1060" d="M85 213q0 26 19 45l9 8q19 20 46 21t46 -19l45 -41q87 -84 225 -84h41q119 0 203 63t84 152q0 90 -88 156l-463 334q-148 106 -148 252q0 147 124.5 240.5t306.5 93.5h4q192 0 329 -127l41 -39q19 -19 19.5 -45t-19.5 -47l-8 -9q-19 -20 -45.5 -21t-46.5 19l-45 41 q-84 84 -225 84h-4q-124 0 -205.5 -51.5t-81.5 -138.5q0 -43 21 -73t67 -64l463 -334q69 -51 108 -121t39 -150q0 -149 -125.5 -253.5t-304.5 -104.5h-41q-96 0 -181 34t-147 93l-41 39q-21 20 -21 47z" />
<glyph unicode="T" horiz-adv-x="983" d="M61 1356v12q0 28 19 47t47 19h729q28 0 47 -19t19 -47v-12q0 -28 -19 -47t-47 -19h-293v-1224q0 -28 -18.5 -47t-46.5 -19h-13q-28 0 -46.5 19t-18.5 47v1224h-293q-28 0 -47 19t-19 47z" />
<glyph unicode="U" horiz-adv-x="1241" d="M190 430v938q0 28 19 47t47 19h12q28 0 47 -19t19 -47v-938q0 -118 84 -202.5t203 -84.5q118 0 202 84t84 203v938q0 28 19 47t47 19h12q28 0 47 -19t19 -47v-938q0 -178 -125.5 -304t-304.5 -126t-305 126t-126 304z" />
<glyph unicode="V" horiz-adv-x="927" d="M18 1352q-2 8 -2 16q0 17 10 34q15 24 42 30l12 2q7 2 15 2q18 0 34 -11q23 -15 29 -41l278 -1015l29 -117l27 119l278 1013q8 28 30 42q16 10 33 10q7 0 15 -2l12 -2q28 -6 42 -30q10 -16 9 -33q0 -8 -2 -17l-374 -1301q-15 -51 -70 -51q-57 0 -72 51z" />
<glyph unicode="W" horiz-adv-x="1361" d="M35 1352q-2 8 -2 16q0 19 10 35q14 23 41 29l10 2q8 2 16 2q19 0 35 -11q23 -15 29 -41l213 -1011l8 -133l19 88l178 608q19 68 88 68q63 0 84 -68l184 -608l19 -88l6 133l215 1011q4 26 28 41q17 11 35 11q7 0 15 -2l12 -2q26 -6 40 -29q10 -17 10 -37q0 -7 -1 -14 l-274 -1301q-6 -24 -25.5 -37.5t-46.5 -13.5q-55 0 -70 51l-231 783l-229 -783q-15 -51 -72 -51q-26 0 -46 13.5t-24 37.5z" />
<glyph unicode="X" horiz-adv-x="1054" d="M32 1372q4 26 25 41l11 8q18 12 39 12q6 0 11 -1q27 -4 42 -27l368 -559l367 559q15 23 42 27q6 1 11 1q21 0 39 -12l10 -8q21 -15 26 -41q1 -7 1 -13q0 -19 -10 -36l-402 -606l402 -606q10 -17 10 -36q0 -7 -1 -15q-5 -28 -26 -42l-10 -6q-18 -12 -38 -12q-6 0 -12 2 q-27 4 -42 27l-367 557l-368 -557q-15 -23 -42 -27l-12 -2q-20 0 -38 12l-11 6q-21 14 -25 42q-1 6 -1 12q0 21 12 39l399 606l-399 606q-12 19 -12 39q0 5 1 10z" />
<glyph unicode="Y" horiz-adv-x="1026" d="M18 1372q3 26 25 41l10 8q18 12 39 12q5 0 11 -1q27 -4 42 -27l369 -559l367 559q15 23 42 27q6 1 11 1q21 0 39 -12l10 -8q21 -15 25 -41q2 -6 2 -12q0 -20 -11 -37l-413 -631v-626q0 -27 -19.5 -46.5t-46.5 -19.5h-12q-28 0 -47 19t-19 47v628l-413 629q-12 19 -12 39 q0 5 1 10z" />
<glyph unicode="Z" horiz-adv-x="1093" d="M117 1356v12q0 28 18.5 47t46.5 19h721q13 0 31 -9l10 -6q24 -13 31 -40q2 -9 2 -18q0 -17 -8 -32l-658 -1186h600q28 0 47 -18.5t19 -46.5v-12q0 -28 -19 -47t-47 -19h-716q-22 0 -35 8l-10 8q-24 13 -31 39q-2 9 -2 18q0 16 8 31l657 1186h-600q-28 0 -46.5 19 t-18.5 47z" />
<glyph unicode="[" horiz-adv-x="522" d="M121 -221v1446q0 28 18.5 46.5t46.5 18.5h228q28 0 46.5 -18.5t18.5 -46.5v-13q0 -28 -18.5 -46.5t-46.5 -18.5h-150v-1290h150q28 0 46.5 -19t18.5 -47v-12q0 -28 -18.5 -47t-46.5 -19h-228q-28 0 -46.5 19t-18.5 47z" />
<glyph unicode="\" horiz-adv-x="663" d="M47 1092q-9 26 2.5 50.5t36.5 33.5l12 4q26 9 50.5 -3t33.5 -38l434 -1227q9 -26 -2 -50.5t-36 -33.5l-13 -4q-26 -9 -50.5 3t-33.5 38z" />
<glyph unicode="]" horiz-adv-x="522" d="M43 -209q0 28 19 47t47 19h149v1290h-149q-28 0 -47 18.5t-19 46.5v13q0 28 19 46.5t47 18.5h227q28 0 46.5 -18.5t18.5 -46.5v-1446q0 -28 -18.5 -47t-46.5 -19h-227q-28 0 -47 19t-19 47v12z" />
<glyph unicode="^" horiz-adv-x="1044" d="M148.5 944.5q-3.5 24.5 11.5 46.5l309 443q16 32 53 32q10 0 18.5 -2t14.5 -7t9 -8t7 -9l4 -6l312 -443q14 -22 9.5 -46.5t-24.5 -37.5q-20 -14 -44.5 -9t-39.5 26l-266 379l-266 -379q-13 -21 -38.5 -26t-45.5 9q-20 13 -23.5 37.5z" />
<glyph unicode="_" horiz-adv-x="940" d="M0 -203q0 25 17.5 42.5t43.5 17.5h818q26 0 43.5 -17.5t17.5 -42.5t-17.5 -42t-43.5 -17h-818q-26 0 -43.5 17t-17.5 42z" />
<glyph unicode="`" horiz-adv-x="985" d="M255 1484q0 25 19 42q17 17 42 16t42 -20l199 -207q17 -19 17 -44t-17 -42q-19 -17 -43 -16t-43 20l-197 207q-19 19 -19 44z" />
<glyph unicode="a" horiz-adv-x="995" d="M104 250v72q0 104 73.5 177.5t176.5 73.5h324v144q0 60 -41.5 101.5t-101.5 41.5h-293q-28 0 -47 19t-19 47v12q0 28 19 47t47 19h293q118 0 202 -84t84 -203v-651q0 -28 -18.5 -47t-46.5 -19h-402q-103 0 -176.5 73.5t-73.5 176.5zM248 250q0 -44 31.5 -75.5t74.5 -31.5 h324v287h-324q-43 0 -74.5 -32t-31.5 -76v-72z" />
<glyph unicode="b" horiz-adv-x="1032" d="M184 66v1302q0 28 19 47t47 19h12q28 0 47 -19t19 -47v-364h286q118 0 202.5 -84t84.5 -203v-467q0 -103 -74 -176.5t-178 -73.5h-399q-28 0 -47 19t-19 47zM328 143h321q44 0 76.5 31.5t32.5 75.5v467q0 60 -42 101.5t-102 41.5h-286v-717z" />
<glyph unicode="c" horiz-adv-x="870" d="M129 215v502q0 119 84.5 203t202.5 84h293q28 0 46.5 -19t18.5 -47v-12q0 -28 -18.5 -47t-46.5 -19h-293q-60 0 -102 -41.5t-42 -101.5v-502q0 -29 21.5 -50.5t50.5 -21.5h365q28 0 46.5 -18.5t18.5 -46.5v-12q0 -28 -18.5 -47t-46.5 -19h-365q-89 0 -152 63t-63 152z " />
<glyph unicode="d" horiz-adv-x="1032" d="M131 250v467q0 119 84.5 203t202.5 84h287v364q0 28 18.5 47t46.5 19h12q28 0 47 -19t19 -47v-1302q0 -28 -19 -47t-47 -19h-401q-103 0 -176.5 73.5t-73.5 176.5zM274 250q0 -44 32 -75.5t75 -31.5h324v717h-287q-60 0 -102 -41.5t-42 -101.5v-467z" />
<glyph unicode="e" d="M129 287v358q0 149 105 254t253 105h37q149 0 254 -105t105 -254v-149q-1 -28 -20.5 -47t-45.5 -19h-545v-143q0 -60 42 -102t102 -42h364q28 0 47 -18.5t19 -46.5v-12q0 -28 -19 -47t-47 -19h-364q-118 0 -202.5 84t-84.5 203zM272 573h467v72q0 89 -63 152t-152 63h-37 q-89 0 -152 -63t-63 -152v-72z" />
<glyph unicode="f" horiz-adv-x="724" d="M88 926v12q0 28 19 47t47 19h77v143q0 119 84.5 203t202.5 84h78q28 0 47 -19t19 -47v-12q0 -28 -19 -47t-47 -19h-78q-60 0 -101.5 -41.5t-41.5 -101.5v-143h221q28 0 47 -19t19 -47v-12q0 -28 -19 -47t-47 -19h-221v-794q0 -28 -19 -47t-47 -19h-12q-28 0 -47 19 t-19 47v794h-77q-28 0 -47 19t-19 47z" />
<glyph unicode="g" horiz-adv-x="1013" d="M131 215v502q0 119 84.5 203t202.5 84h346q28 0 46.5 -19t18.5 -47v-1010q0 -119 -83 -202.5t-203 -83.5h-275q-28 0 -46.5 18.5t-18.5 46.5v12q0 28 18.5 47t46.5 19h275q60 0 101.5 41.5t41.5 101.5v72h-340q-89 0 -152 63t-63 152zM274 215q0 -29 21.5 -50.5 t50.5 -21.5h340v717h-268q-60 0 -102 -41.5t-42 -101.5v-502z" />
<glyph unicode="h" horiz-adv-x="1075" d="M184 66v1302q0 28 19 47t47 19h12q28 0 47 -19t19 -47v-364h286q118 0 202.5 -84t84.5 -203v-651q0 -28 -18.5 -47t-46.5 -19h-13q-28 0 -46.5 19t-18.5 47v651q0 60 -42 101.5t-102 41.5h-286v-794q0 -28 -19 -47t-47 -19h-12q-28 0 -47 19t-19 47z" />
<glyph unicode="i" horiz-adv-x="497" d="M160 1337v13q0 34 24 58t58 24h14q34 0 58 -24t24 -58v-13q0 -34 -24 -58t-58 -24h-14q-34 0 -58 24t-24 58zM178 66v872q0 28 19 47t47 19h12q27 0 46.5 -19.5t19.5 -46.5v-872q0 -27 -19.5 -46.5t-46.5 -19.5h-12q-28 0 -47 19t-19 47z" />
<glyph unicode="j" horiz-adv-x="577" d="M-31 -281q0 28 19 47t47 19h78q60 0 101.5 41.5t41.5 101.5v1010q0 28 19 47t47 19h12q28 0 46.5 -19t18.5 -47v-1010q0 -118 -83.5 -202t-202.5 -84h-78q-28 0 -47 18.5t-19 46.5v12zM240 1339v13q0 34 24 58t58 24h12q34 0 58 -24t24 -58v-13q0 -34 -24 -58t-58 -24 h-12q-34 0 -58 24t-24 58z" />
<glyph unicode="k" horiz-adv-x="968" d="M184 66v1302q0 28 19 47t47 19h12q28 0 47 -19t19 -47v-733l460 354q22 17 49 13.5t44 -25.5l6 -8q14 -18 14 -39q0 -6 -1 -10q-4 -26 -26 -43l-251 -195l270 -580q7 -15 7 -31q0 -9 -2 -19q-8 -26 -32 -38l-10 -6q-16 -9 -32 -9q-10 0 -20 3q-26 8 -36 33l-260 557 l-180 -139v-387q0 -28 -19 -47t-47 -19h-12q-28 0 -47 19t-19 47z" />
<glyph unicode="l" horiz-adv-x="530" d="M178 215v1153q0 28 19 47t47 19h12q28 0 47 -19t19 -47v-1153q0 -29 21 -50.5t50 -21.5h6q28 0 47 -18.5t19 -46.5v-12q0 -28 -19 -47t-47 -19h-6q-89 0 -152 63t-63 152z" />
<glyph unicode="m" horiz-adv-x="1361" d="M184 66v872q0 28 19 47t47 19h651q119 0 203 -84t84 -203v-651q0 -28 -19 -47t-47 -19h-12q-28 0 -47 19t-19 47v651q0 60 -41.5 101.5t-101.5 41.5h-143v-794q0 -28 -19 -47t-47 -19h-12q-28 0 -47 19t-19 47v794h-286v-794q0 -28 -19 -47t-47 -19h-12q-28 0 -47 19 t-19 47z" />
<glyph unicode="n" horiz-adv-x="1075" d="M184 66v872q0 28 19 47t47 19h364q118 0 202.5 -84t84.5 -203v-651q0 -28 -18.5 -47t-46.5 -19h-13q-28 0 -46.5 19t-18.5 47v651q0 60 -42 101.5t-102 41.5h-286v-794q0 -28 -19 -47t-47 -19h-12q-28 0 -47 19t-19 47z" />
<glyph unicode="o" d="M129 358v287q0 149 105 254t253 105h37q149 0 254 -105t105 -254v-287q-1 -149 -106 -253.5t-253 -104.5h-37q-149 0 -253.5 104.5t-104.5 253.5zM272 358q0 -89 63 -152t152 -63h37q89 0 152 63t63 152v287q0 89 -63 152t-152 63h-37q-89 0 -152 -63t-63 -152v-287z" />
<glyph unicode="p" d="M184 -293v1231q0 28 19 47t47 19h346q120 0 203.5 -84t83.5 -203v-502q0 -89 -63 -152t-152 -63h-340v-293q0 -28 -19 -46.5t-47 -18.5h-12q-28 0 -47 18.5t-19 46.5zM328 143h340q30 0 50.5 21t20.5 51v502q0 60 -41.5 101.5t-101.5 41.5h-268v-717z" />
<glyph unicode="q" d="M129 215v502q0 119 84.5 203t202.5 84h346q28 0 46.5 -19t18.5 -47v-1231q0 -28 -18.5 -46.5t-46.5 -18.5h-12q-27 0 -46.5 19t-19.5 46v293h-340q-89 0 -152 63t-63 152zM272 215q0 -29 21.5 -50.5t50.5 -21.5h340v717h-268q-60 0 -102 -41.5t-42 -101.5v-502z" />
<glyph unicode="r" horiz-adv-x="839" d="M184 66v872q0 28 19 47t47 19h8q27 0 46.5 -19.5t19.5 -46.5l-2 -61l43 34q108 93 235 93h164q28 0 46.5 -19t18.5 -47v-12q0 -28 -18.5 -47t-46.5 -19h-164q-51 0 -99 -18.5t-82 -46.5t-56.5 -54t-34.5 -49v-626q0 -28 -19 -47t-47 -19h-12q-28 0 -47 19t-19 47z" />
<glyph unicode="s" horiz-adv-x="907" d="M90 226q4 27 27 42l10 6q21 15 48 11t42 -27l39 -55q41 -60 117 -60h145q42 0 75.5 21t51.5 57q12 22 3 55t-32 48l-409 254q-63 40 -82 82t-19 96q0 96 90 172t195 76h111q72 0 134.5 -33t100.5 -90l37 -54q15 -23 11 -50t-27 -42l-10 -6q-21 -15 -48.5 -11t-42.5 27 l-39 56q-43 59 -116 59h-111q-41 0 -75.5 -21.5t-51.5 -56.5q-11 -22 -2.5 -48.5t31.5 -39.5l409 -254q101 -63 101 -200q0 -96 -89.5 -168t-195.5 -72h-145q-72 0 -135 33t-101 90l-37 53q-12 18 -12 38z" />
<glyph unicode="t" horiz-adv-x="763" d="M82 926v12q0 28 18.5 47t46.5 19h78v364q0 28 19 47t47 19h12q28 0 47 -19t19 -47v-364h221q28 0 46.5 -19t18.5 -47v-12q0 -28 -18.5 -47t-46.5 -19h-221v-573q0 -60 41.5 -102t101.5 -42h78q28 0 46.5 -18.5t18.5 -46.5v-12q0 -28 -18.5 -47t-46.5 -19h-78 q-118 0 -202.5 84t-84.5 203v573h-78q-28 0 -46.5 19t-18.5 47z" />
<glyph unicode="u" horiz-adv-x="1075" d="M174 287v651q0 28 19 47t47 19h12q28 0 46.5 -19t18.5 -47v-651q0 -60 42 -102t102 -42h287v795q0 28 18.5 47t46.5 19h12q28 0 47 -19t19 -47v-872q0 -28 -19 -47t-47 -19h-364q-119 0 -203 84t-84 203z" />
<glyph unicode="v" horiz-adv-x="761" d="M25 911q-3 9 -3 18q0 16 8 31q12 24 38 33l12 4q11 3 21 3q16 0 30 -8q24 -12 31 -38l211 -721l8 -61l10 61l209 721q7 26 31 38q15 8 30 8q10 0 21 -3l12 -4q26 -9 38 -33q8 -15 8 -31q0 -9 -3 -18l-276 -870q-13 -43 -80 -43t-80 43z" />
<glyph unicode="w" horiz-adv-x="1052" d="M25 911q-1 8 -1 16q0 18 8 34q12 23 36 32l12 4q11 3 21 3q15 0 31 -8q26 -12 30 -38l137 -682l6 -36l14 43l123 319q29 78 46 97q18 19 40 20q13 0 23 -5t18.5 -19.5t13 -24t14 -34t13.5 -34.5l123 -319l12 -41l9 34l135 682q5 26 31 38q16 8 31 8q10 0 20 -3l12 -4 q25 -9 37 -32q8 -15 8 -32q0 -9 -2 -18l-182 -860q-4 -23 -32 -39q-22 -12 -37 -13q-4 0 -7 1l-25 8q-31 7 -53 72l-158 422l-4 28l-6 -30l-160 -420q-25 -66 -53 -72l-24 -8q-7 -2 -13 -2l-35 12q-24 16 -30 41z" />
<glyph unicode="x" horiz-adv-x="854" d="M69 60q-1 6 -1 12q0 21 12 39l260 393l-260 391q-12 18 -12 38q0 6 2 12q4 27 26 42l10 6q17 12 38 12q6 0 12 -1q28 -4 43 -27l227 -344l229 344q15 23 43 27q6 1 11 1q21 0 39 -12l10 -6q21 -15 25.5 -42t-9.5 -50l-262 -391l262 -393q12 -18 12 -39q0 -6 -1 -12 q-4 -28 -27 -42l-10 -6q-17 -12 -37 -12q-6 0 -12 2q-27 4 -42 27l-231 346l-229 -346q-15 -23 -43 -27l-12 -2q-20 0 -38 12l-10 6q-21 14 -25 42z" />
<glyph unicode="y" horiz-adv-x="790" d="M37 909q-4 12 -4 23q0 14 5 27q11 25 36 34l10 6q12 4 24 4q15 0 28 -5q25 -11 34 -35l236 -637l14 -70l8 70l199 630q9 26 33 39q14 8 29 8q10 0 20 -4l12 -4q26 -7 39 -31q7 -15 7 -30q0 -10 -3 -21l-352 -1122q-28 -85 -107 -126q-47 -24 -96 -24q-34 0 -68 11l-6 2 q-26 7 -38.5 31t-4.5 51l4 12q8 25 32 37.5t50 5.5l6 -2q28 -9 54.5 4t35.5 41l74 238z" />
<glyph unicode="z" horiz-adv-x="923" d="M102 926v12q0 28 19 47t47 19h559q9 2 17 2q21 0 38 -13l11 -6q21 -15 25 -42q1 -7 2 -13q0 -20 -11 -37l-500 -752h445q28 0 46.5 -18.5t18.5 -46.5v-12q0 -28 -18.5 -47t-46.5 -19h-566h-4h-8q-20 0 -35 12l-10 6q-23 15 -27 42.5t11 50.5l497 749h-444q-28 0 -47 19 t-19 47z" />
<glyph unicode="{" horiz-adv-x="559" d="M90 498q0 34 43 49q37 13 61.5 57.5t24.5 89.5v326q0 90 49 162.5t129 103.5q25 11 50 -1t34 -38l4 -12q9 -25 -2 -49.5t-37 -34.5q-38 -15 -61 -51t-23 -80v-326q0 -65 -28 -119.5t-88 -76.5q59 -14 87.5 -73t28.5 -126v-315q0 -44 23 -80t61 -51q26 -10 37 -34.5 t2 -49.5l-4 -13q-9 -26 -34 -38t-50 -1q-80 31 -129 104t-49 163v315q0 44 -25 88t-61 59q-23 9 -33 20.5t-10 31.5z" />
<glyph unicode="|" horiz-adv-x="495" d="M176 -221v1446q0 28 19 46.5t47 18.5h12q28 0 46.5 -18.5t18.5 -46.5v-1446q0 -28 -18.5 -47t-46.5 -19h-12q-28 0 -47 19t-19 47z" />
<glyph unicode="}" horiz-adv-x="559" d="M74 -231q-9 25 2.5 49t36.5 35q38 15 62 51t24 80v315q0 67 28 126t86 73q-41 15 -67.5 48t-36.5 70t-10 78v326q0 44 -24 80t-62 51q-25 11 -36.5 35t-2.5 49l4 12q9 26 34 38t50 1q80 -31 130 -103.5t50 -162.5v-326q0 -45 23.5 -89.5t60.5 -57.5q43 -15 43 -49 q0 -20 -10 -31.5t-33 -20.5q-36 -15 -60 -59t-24 -88v-315q0 -90 -50 -163t-130 -104q-25 -11 -50 1t-34 38z" />
<glyph unicode="~" horiz-adv-x="1054" d="M100.5 544.5q2.5 24.5 24.5 41.5q1 1 19 18t31.5 26.5t37.5 23.5t54 21t65 7q53 0 110.5 -17.5t99 -39t90 -39t85.5 -17.5q21 0 39.5 3.5t32 10t21 11t16.5 12t10 8.5q55 44 86 15l14 -15q20 -19 19 -46t-23 -44q-39 -33 -58.5 -47.5t-62.5 -30.5t-94 -16 q-48 0 -104 17.5t-98 39t-91 39t-86 17.5q-15 0 -29 -2t-25.5 -5.5t-20 -7t-18 -10t-13.5 -9.5t-12 -9.5t-9 -7.5q-47 -43 -82 -5l-12 13q-19 20 -16.5 44.5z" />
<glyph unicode="&#xa1;" horiz-adv-x="651" d="M266 1049v16q0 34 24 58t58 24h14q35 0 59.5 -24t24.5 -58v-16q0 -34 -23.5 -58t-57.5 -24h-17q-34 0 -58 24t-24 58zM285 -221v944q0 28 18.5 46.5t46.5 18.5h12q27 0 46.5 -19t19.5 -46v-944q0 -27 -19.5 -46.5t-46.5 -19.5h-12q-28 0 -46.5 19t-18.5 47z" />
<glyph unicode="&#xa2;" horiz-adv-x="905" d="M129 430v502q0 118 84.5 202.5t202.5 84.5h28v153q0 25 17.5 43.5t42.5 18.5q24 0 41.5 -18.5t17.5 -43.5v-153h180q28 0 47 -19t19 -47v-12q0 -28 -19 -47t-47 -19h-180v-717h180q28 0 47 -18.5t19 -46.5v-12q0 -28 -19 -47t-47 -19h-180v-154q0 -26 -17 -43.5 t-42 -17.5t-42.5 17.5t-17.5 43.5v154h-100q-89 0 -152 63t-63 152zM272 430q0 -29 21.5 -50.5t50.5 -21.5h100v717h-28q-60 0 -102 -41.5t-42 -101.5v-502z" />
<glyph unicode="&#xa3;" horiz-adv-x="1064" d="M96 729q0 25 18 42t44 17h84v287q0 148 104.5 253.5t253.5 105.5q103 0 184 -52t127 -127q13 -21 8 -44.5t-28 -36.5l-17 -11q-26 -17 -52.5 -8t-41.5 39q-18 33 -67 64.5t-113 31.5q-89 0 -152 -63t-63 -152v-287h221q25 0 43.5 -17.5t18.5 -41.5t-18.5 -41.5 t-43.5 -17.5h-221v-527h508q27 0 46 -19t19 -46v-12q0 -28 -19 -47t-46 -19h-586q-28 0 -46.5 19t-18.5 47v604h-84q-26 0 -44 17t-18 42z" />
<glyph unicode="&#xa4;" horiz-adv-x="1433" d="M137 -121v367h94v55h-51v844h1073v-844h-53v-55h96v-367h-1159zM193 -66h1048v254h-1048v-254zM236 358h962v732h-962v-732zM289 246h854v55h-854v-55zM305 727q0 51 6 126t11 124l6 49h780q20 -184 20 -299q0 -52 -5 -127.5t-10 -124.5l-5 -49h-780q-23 184 -23 301z M362 727q0 -63 6.5 -142t10.5 -104h676q4 23 10 102.5t6 143.5t-6 142t-10 102h-676q-4 -25 -10.5 -103t-6.5 -141zM891 55v54h252v-54h-252z" />
<glyph unicode="&#xa5;" horiz-adv-x="1026" d="M17.5 1372q3.5 26 25.5 41l10 8q23 15 50 11t42 -27l369 -559l367 559q15 23 42 27t50 -11l10 -8q21 -15 25.5 -41t-9.5 -49l-272 -416h156q26 0 43.5 -17t17.5 -42t-17.5 -42.5t-43.5 -17.5h-234l-63 -96v-119h297q26 0 43.5 -18t17.5 -43t-17.5 -41t-43.5 -16h-297 v-389q0 -27 -19.5 -46.5t-46.5 -19.5h-12q-28 0 -47 19t-19 47v387h-299q-26 0 -43.5 17t-17.5 42q0 26 17.5 42.5t43.5 16.5h299v123l-63 94h-236q-26 0 -43.5 17.5t-17.5 42.5t17.5 42t43.5 17h158l-272 416q-15 23 -11.5 49z" />
<glyph unicode="&#xa6;" horiz-adv-x="1433" d="M90 842q3 5 20.5 37.5t22 40.5t21 36.5t24.5 39.5t24.5 34t28.5 35.5t29 30t35 30t37 23.5l291 -365q-69 -92 -131 -129q64 -109 160.5 -209.5t205.5 -173.5q39 65 135 129l350 -301q-39 -58 -118 -117t-138 -89l-59 -29q-201 82 -342 163t-258 203 q-117 121 -193.5 267.5t-144.5 343.5zM190 834q72 -190 144 -323t184 -243q176 -169 508 -301q124 64 188 121l-229 193q-47 -43 -92 -138q-103 60 -192.5 134.5t-145 137.5t-99.5 126.5t-62.5 99.5t-26.5 59q94 37 137 86l-191 236q-18 -19 -36.5 -45t-28.5 -43 t-30.5 -52.5t-27.5 -47.5z" />
<glyph unicode="&#xa7;" horiz-adv-x="1120" d="M180 554q-13 96 41 200q21 37 44 60t47.5 39t29.5 21q-139 70 -139 273q0 129 102.5 208t255.5 79q103 0 184 -52t127 -127q13 -21 8 -44.5t-26 -36.5l-16 -11q-28 -17 -53.5 -8t-43.5 39q-18 33 -67 64.5t-113 31.5q-93 0 -154 -37.5t-61 -105.5q0 -87 35.5 -138 t136.5 -83l191 -62q35 -11 71 -32.5t75 -58t60.5 -85t27.5 -114t-23 -144.5q-10 -29 -24.5 -53t-32.5 -41.5t-30.5 -27.5t-30.5 -21.5t-20 -12.5q60 -42 99 -126.5t39 -165.5q0 -132 -106.5 -236t-252.5 -104q-103 0 -184 51.5t-127 126.5q-13 21 -8 45t28 37l17 10 q26 17 52.5 8t41.5 -39q18 -33 67 -64.5t113 -31.5q87 0 151 62t64 135q0 40 -3.5 67.5t-16.5 62t-43.5 59.5t-77.5 40l-232 72q-87 28 -148.5 101.5t-74.5 169.5zM330 645q-22 -71 12.5 -136t106.5 -87l118 -39q71 -22 137 12.5t89 104.5q22 70 -12.5 136t-104.5 89 l-121 37q-70 23 -136 -11.5t-89 -105.5z" />
<glyph unicode="&#xa8;" horiz-adv-x="817" d="M158 1356v12q0 28 18.5 47t46.5 19h13q28 0 46.5 -19t18.5 -47v-12q0 -28 -18.5 -47t-46.5 -19h-13q-28 0 -46.5 19t-18.5 47zM516 1356v12q0 28 19 47t47 19h12q28 0 46.5 -19t18.5 -47v-12q0 -28 -18.5 -47t-46.5 -19h-12q-28 0 -47 19t-19 47z" />
<glyph unicode="&#xa9;" horiz-adv-x="1755" d="M160 717q0 145 57 278t153 229t229 153t278 57t278 -57t228.5 -153t152.5 -228.5t57 -278.5t-57 -278.5t-152.5 -228.5t-228.5 -153t-278 -57t-278 57t-229 153t-153 229t-57 278zM283 717q0 -161 79.5 -298t216.5 -216.5t298 -79.5q121 0 231 47t189 126.5t126 189.5 t47 231t-47 231t-126 189.5t-189 126.5t-231 47q-161 0 -298 -79.5t-216.5 -216.5t-79.5 -298zM578 481v426q0 99 70 169.5t169 70.5h234q22 0 36.5 -15.5t14.5 -37.5v-7q0 -23 -14.5 -38t-36.5 -15h-234q-53 0 -90 -37t-37 -90v-426q0 -34 24 -58t58 -24h279 q22 0 36.5 -14.5t14.5 -36.5v-8q0 -22 -14.5 -37.5t-36.5 -15.5h-279q-81 0 -137.5 57t-56.5 137z" />
<glyph unicode="&#xaa;" horiz-adv-x="860" d="M115 465q0 25 17 41t42 16h455q25 0 42 -17t17 -40q0 -25 -17 -41t-42 -16h-455q-25 0 -42 17t-17 40zM115 831v58q0 83 58.5 142t141.5 59h258v114q0 47 -33.5 81t-80.5 34h-234q-23 0 -38 15t-15 38v8q0 23 15 38.5t38 15.5h234q95 0 162 -67.5t67 -162.5v-520 q0 -23 -15 -38t-38 -15h-320q-83 0 -141.5 58.5t-58.5 141.5zM229 831q0 -35 25.5 -60.5t60.5 -25.5h258v230h-258q-35 0 -60.5 -25.5t-25.5 -60.5v-58z" />
<glyph unicode="&#xab;" horiz-adv-x="1138" d="M81 550q0 25 19 44l318 317q19 18 43 18t43 -18q17 -17 17 -42t-19 -42l-277 -278l277 -277q18 -18 18 -42t-18 -42t-42 -18t-42 18l-318 318q-19 19 -19 44zM540 550q0 25 19 44l318 317q19 18 43 18t43 -18q17 -17 17 -42t-19 -42l-277 -278l277 -277q18 -18 18 -42 t-18 -42t-42 -18t-42 18l-318 318q-19 19 -19 44z" />
<glyph unicode="&#xac;" horiz-adv-x="1069" d="M104 496v12q0 28 19 46.5t47 18.5h733q26 0 44 -19t18 -46v-303q0 -27 -19.5 -46.5t-46.5 -19.5h-12q-28 0 -47 19t-19 47v225h-651q-28 0 -47 19t-19 47z" />
<glyph unicode="&#xad;" horiz-adv-x="733" d="M80 496v12q0 28 18.5 46.5t46.5 18.5h443q28 0 46.5 -18.5t18.5 -46.5v-12q0 -28 -18.5 -47t-46.5 -19h-443q-28 0 -46.5 19t-18.5 47z" />
<glyph unicode="&#xae;" horiz-adv-x="1755" d="M160 717q0 145 57 278t153 229t229 153t278 57t278 -57t228.5 -153t152.5 -228.5t57 -278.5t-57 -278.5t-152.5 -228.5t-228.5 -153t-278 -57t-278 57t-229 153t-153 229t-57 278zM283 717q0 -161 79.5 -298t216.5 -216.5t298 -79.5q121 0 231 47t189 126.5t126 189.5 t47 231t-47 231t-126 189.5t-189 126.5t-231 47q-161 0 -298 -79.5t-216.5 -216.5t-79.5 -298zM610 340v754q0 22 16 37.5t38 15.5h278q99 0 169.5 -70.5t70.5 -169.5v-14q0 -89 -57 -155.5t-142 -80.5l188 -282q11 -18 10 -35.5t-13 -30t-27.5 -19t-32 -2t-27.5 20.5 l-231 344h-127v-313q0 -22 -15.5 -37.5t-37.5 -15.5h-6q-22 0 -38 15.5t-16 37.5zM723 766h219q52 0 89.5 37t37.5 90v14q0 53 -37.5 90t-89.5 37h-219v-268z" />
<glyph unicode="&#xaf;" horiz-adv-x="1058" d="M203 1303q0 25 17.5 42t43.5 17h531q26 0 43.5 -17t17.5 -42t-17.5 -42.5t-43.5 -17.5h-531q-26 0 -43.5 17.5t-17.5 42.5z" />
<glyph unicode="&#xb0;" horiz-adv-x="733" d="M102 772q0 110 78 188t187 78t186.5 -78t77.5 -188q0 -109 -77.5 -186.5t-186.5 -77.5t-187 77.5t-78 186.5zM211 772q0 -66 45.5 -111t110.5 -45q64 0 106.5 45t42.5 111t-43.5 111t-107.5 45q-65 0 -109.5 -45t-44.5 -111z" />
<glyph unicode="&#xb1;" horiz-adv-x="925" d="M104 66v12q0 28 19 46.5t47 18.5h586q28 0 46.5 -18.5t18.5 -46.5v-12q0 -28 -18.5 -47t-46.5 -19h-586q-28 0 -47 19t-19 47zM104 567v13q0 28 19 46.5t47 18.5h221v221q0 28 19 47t47 19h12q28 0 47 -19t19 -47v-221h221q28 0 46.5 -18.5t18.5 -46.5v-13 q0 -28 -18.5 -46.5t-46.5 -18.5h-221v-221q0 -28 -19 -47t-47 -19h-12q-28 0 -47 19t-19 47v221h-221q-28 0 -47 18.5t-19 46.5z" />
<glyph unicode="&#xb2;" horiz-adv-x="528" d="M102 584v4q0 11 19 35l186 202q35 39 35 60q0 26 -20.5 45.5t-49.5 19.5q-26 0 -45.5 -16.5t-21.5 -38.5q-2 -19 -13 -30t-30 -11h-12q-19 0 -31.5 12t-12.5 29q0 60 49.5 103.5t118.5 43.5q72 0 120 -46.5t48 -112.5q0 -42 -51 -107l-104 -121l-23 -20l39 2h121 q17 0 27 -12t10 -31v-10q0 -19 -10 -31t-27 -12h-279q-19 0 -31 12t-12 31z" />
<glyph unicode="&#xb3;" horiz-adv-x="520" d="M111 686q-1 13 8.5 24t21.5 11h6q10 0 19 -9.5t12 -21.5q5 -28 27.5 -47.5t54.5 -19.5t58 23.5t26 51.5v4q0 31 -24.5 55.5t-59.5 24.5h-22q-12 0 -21.5 9.5t-9.5 21.5v6q0 12 9.5 21.5t21.5 9.5h20q26 0 47 18.5t21 44.5q0 28 -18 45t-46 17q-59 0 -72 -45 q-4 -15 -17.5 -20t-25.5 3l-8 5q-18 10 -10 38q10 32 42.5 59t88.5 27t94.5 -37t38.5 -92q0 -56 -41 -94q23 -17 41.5 -47.5t18.5 -64.5q0 -63 -44.5 -107.5t-107.5 -44.5q-59 0 -101 38.5t-48 92.5z" />
<glyph unicode="&#xb4;" horiz-adv-x="985" d="M411 1271q0 25 19 44l197 207q19 19 43 20t43 -16q17 -17 17 -42t-17 -44l-199 -207q-17 -19 -42 -20t-42 16q-19 17 -19 42z" />
<glyph unicode="&#xb5;" horiz-adv-x="1071" d="M170 -293v1231q0 28 19 47t47 19h12q28 0 46.5 -19t18.5 -47v-586q0 -86 66 -147.5t145 -61.5q90 0 154.5 63t64.5 152v580q0 28 19 47t47 19h12q28 0 47 -19t19 -47v-938q0 -28 -19 -47t-47 -19h-12q-28 0 -47 19t-19 47v90q-81 -90 -219 -90q-49 0 -90 12.5t-59.5 25 t-39 31t-22.5 19.5v-381q0 -28 -18.5 -46.5t-46.5 -18.5h-12q-28 0 -47 18.5t-19 46.5z" />
<glyph unicode="&#xb6;" horiz-adv-x="1157" d="M86 1075q0 149 104.5 254t253.5 105h437q28 0 46.5 -19t18.5 -47v-1589q0 -28 -18.5 -47t-46.5 -19h-13q-28 0 -46.5 19t-18.5 47v1511h-144v-1511q0 -28 -18.5 -47t-46.5 -19h-12q-28 0 -47 19t-19 47v938h-72q-149 0 -253.5 104.5t-104.5 253.5z" />
<glyph unicode="&#xb7;" horiz-adv-x="495" d="M145 522v17q0 38 28.5 66t66.5 28h14q39 0 66.5 -27.5t27.5 -66.5v-15q0 -40 -27 -67t-65 -27h-16q-39 0 -67 27t-28 65z" />
<glyph unicode="&#xb8;" horiz-adv-x="1058" d="M358 -300q0 25 19 44l196 207q19 19 43 19t43 -17q17 -17 17 -41t-17 -43l-198 -207q-17 -19 -42 -20t-42 16q-19 17 -19 42z" />
<glyph unicode="&#xb9;" horiz-adv-x="475" d="M118 930q1 17 13 28l78 66q16 16 43 16h29q41 0 41 -36v-429q0 -36 -41 -36h-17q-18 0 -30.5 9.5t-12.5 26.5v332l-24 -20q-14 -10 -31.5 -9t-28.5 13l-8 8q-12 14 -11 31z" />
<glyph unicode="&#xba;" horiz-adv-x="876" d="M137 922v229q0 119 84.5 203t202.5 84h29q120 0 203 -84t83 -203v-229q0 -119 -84 -203t-202 -84h-29q-118 0 -202.5 84.5t-84.5 202.5zM145 465q0 24 17.5 40.5t42.5 16.5h467q25 0 42 -17t17 -40q0 -25 -17 -41t-42 -16h-467q-25 0 -42.5 17t-17.5 40zM252 922 q0 -70 51 -121t121 -51h29q71 0 121.5 51t50.5 121v229q0 71 -50 121.5t-122 50.5h-29q-70 0 -121 -50.5t-51 -121.5v-229z" />
<glyph unicode="&#xbb;" horiz-adv-x="1138" d="M159 869q0 25 17 42q19 18 43 18t43 -18l318 -317q19 -19 19 -44t-19 -44l-318 -318q-18 -18 -42 -18t-42 18t-18 42t18 42l277 277l-277 278q-19 17 -19 42zM618 869q0 25 17 42q19 18 43 18t43 -18l317 -317q19 -19 19 -44t-19 -44l-317 -318q-18 -18 -42 -18t-42 18 t-18 42t18 42l276 277l-276 278q-19 17 -19 42z" />
<glyph unicode="&#xbc;" horiz-adv-x="1013" d="M118 930q1 17 13 28l78 66q16 16 43 16h29q41 0 41 -36v-429q0 -36 -41 -36h-17q-18 0 -30.5 9.5t-12.5 26.5v332l-24 -20q-14 -10 -31.5 -9t-28.5 13l-8 8q-12 14 -11 31zM233 82l383 924q9 23 31 32t47 0l8 -4q23 -7 33.5 -30.5t-0.5 -45.5l-381 -925 q-11 -22 -32.5 -32t-42.5 -1l-13 4q-22 9 -32 32t-1 46zM588 170l123 309q6 17 22 22t31 -3l16 -4q16 -8 23 -23t0 -31l-103 -247h86v63q0 18 11.5 28.5t29.5 10.5h17q19 0 31 -10.5t12 -28.5v-63h31q17 0 26.5 -11.5t9.5 -29.5v-9q0 -19 -9.5 -31t-26.5 -12h-31v-63 q0 -17 -12 -27t-31 -10h-17q-18 0 -29.5 10t-11.5 27v63h-157q-24 0 -38 19.5t-3 50.5z" />
<glyph unicode="&#xbd;" horiz-adv-x="1056" d="M118 930q1 17 13 28l78 66q16 16 43 16h29q41 0 41 -36v-429q0 -36 -41 -36h-17q-18 0 -30.5 9.5t-12.5 26.5v332l-24 -20q-14 -10 -31.5 -9t-28.5 13l-8 8q-12 14 -11 31zM233 82l383 924q9 23 31 32t47 0l8 -4q23 -7 33.5 -30.5t-0.5 -45.5l-381 -925 q-11 -22 -32.5 -32t-42.5 -1l-13 4q-22 9 -32 32t-1 46zM594 43v4q0 13 18 35l187 203q35 39 35 59q0 27 -20.5 46.5t-49.5 19.5q-26 0 -46 -17t-22 -39q-2 -19 -13 -30t-30 -11h-12q-19 0 -31 12t-12 29q0 60 49.5 104t118.5 44q72 0 120 -47t48 -113q0 -7 -1 -14.5 t-3.5 -15t-4.5 -13t-6.5 -13t-6.5 -11.5t-8 -11.5t-7.5 -9.5l-7.5 -10l-6 -8l-105 -121l-22 -21l39 2h120q17 0 27 -12t10 -31v-10q0 -19 -10 -31t-27 -12h-278q-19 0 -31 12t-12 31z" />
<glyph unicode="&#xbe;" horiz-adv-x="1013" d="M88 686q-1 13 9 24t22 11h6q10 0 19 -9.5t12 -21.5q5 -28 27.5 -47.5t54.5 -19.5t58 23.5t26 51.5v4q0 31 -24.5 55.5t-59.5 24.5h-23q-12 0 -21.5 9.5t-9.5 21.5v6q0 12 9.5 21.5t21.5 9.5h21q25 0 46 18.5t21 44.5q0 28 -17.5 45t-45.5 17q-59 0 -72 -45 q-4 -15 -17.5 -20t-25.5 3l-8 5q-19 11 -11 38q10 32 43 59t89 27t94.5 -37t38.5 -92q0 -56 -41 -94q23 -17 41 -47.5t18 -64.5q0 -63 -44 -107.5t-107 -44.5q-59 0 -101.5 38.5t-48.5 92.5zM252 82l383 924q9 23 31 32t47 0l8 -4q23 -7 33.5 -30.5t-0.5 -45.5l-381 -925 q-11 -22 -33 -32t-43 -1l-12 4q-22 9 -32 32t-1 46zM588 170l123 309q6 17 22 22t31 -3l16 -4q16 -8 23 -23t0 -31l-103 -247h86v63q0 18 11.5 28.5t29.5 10.5h17q19 0 31 -10.5t12 -28.5v-63h31q17 0 26.5 -11.5t9.5 -29.5v-9q0 -19 -9.5 -31t-26.5 -12h-31v-63 q0 -17 -12 -27t-31 -10h-17q-18 0 -29.5 10t-11.5 27v63h-157q-24 0 -38 19.5t-3 50.5z" />
<glyph unicode="&#xbf;" horiz-adv-x="950" d="M92 59q0 163 111 250l176 133q27 22 48.5 56.5t21.5 68.5v156q0 28 18.5 46.5t46.5 18.5h12q27 0 46.5 -19t19.5 -46v-156q0 -69 -34.5 -131t-78.5 -98l-166 -127q-32 -24 -54.5 -65t-22.5 -87q0 -83 60.5 -142.5t152.5 -59.5q85 0 147.5 58t62.5 120q0 28 19 46.5 t47 18.5h12q27 0 43.5 -19t16.5 -48q0 -126 -105.5 -223t-242.5 -97q-155 0 -256 102t-101 244zM430 1049v16q0 34 24 58t58 24h14q34 0 58 -24t24 -58v-16q0 -34 -24 -58t-58 -24h-14q-34 0 -58 24t-24 58z" />
<glyph unicode="&#xc0;" horiz-adv-x="944" d="M27 84l374 1300q16 52 72 52q54 0 70 -52l375 -1300q7 -26 -8 -50t-42 -30l-12 -2q-26 -6 -48 8t-30 41l-104 379h-404l-104 -379q-6 -26 -29 -40.5t-49 -8.5l-12 2q-27 6 -41.5 30t-7.5 50zM309 573h326l-135 492l-27 117l-29 -117zM317 1775q0 25 19 42q17 17 42 15.5 t42 -20.5l198 -206q17 -19 17 -44t-17 -42q-19 -17 -43 -16t-43 20l-196 207q-19 19 -19 44z" />
<glyph unicode="&#xc1;" horiz-adv-x="944" d="M27 84l374 1300q16 52 72 52q54 0 70 -52l375 -1300q7 -26 -8 -50t-42 -30l-12 -2q-26 -6 -48 8t-30 41l-104 379h-404l-104 -379q-6 -26 -29 -40.5t-49 -8.5l-12 2q-27 6 -41.5 30t-7.5 50zM309 573h326l-135 492l-27 117l-29 -117zM405 1562q0 25 19 44l197 206 q19 19 43 20.5t43 -15.5q17 -17 17 -42t-17 -44l-199 -207q-17 -19 -42 -20t-42 16q-19 17 -19 42z" />
<glyph unicode="&#xc2;" horiz-adv-x="944" d="M27 84l374 1300q16 52 72 52q54 0 70 -52l375 -1300q7 -26 -8 -50t-42 -30l-12 -2q-26 -6 -48 8t-30 41l-104 379h-404l-104 -379q-6 -26 -29 -40.5t-49 -8.5l-12 2q-27 6 -41.5 30t-7.5 50zM234 1549.5q-5 24.5 12 45.5l168 187q25 33 53 33t53 -33l166 -187 q17 -21 13 -45.5t-25 -38.5t-43.5 -9.5t-40.5 24.5l-123 143l-123 -143q-18 -20 -40.5 -24.5t-43.5 9.5t-26 38.5zM309 573h326l-135 492l-27 117l-29 -117z" />
<glyph unicode="&#xc3;" horiz-adv-x="944" d="M27 84l374 1300q16 52 72 52q54 0 70 -52l375 -1300q7 -26 -8 -50t-42 -30l-12 -2q-26 -6 -48 8t-30 41l-104 379h-404l-104 -379q-6 -26 -29 -40.5t-49 -8.5l-12 2q-27 6 -41.5 30t-7.5 50zM187.5 1587q-2.5 12 4.5 24t13.5 19t19.5 19q53 47 123 47q34 0 64.5 -9 t71 -27.5t59.5 -25.5q27 -10 51 -10t36 5.5t34 23.5q43 30 67 6l10 -8q15 -15 14 -38t-18 -36q-38 -33 -67.5 -47t-75.5 -14q-31 0 -62 9t-71.5 27.5t-57.5 24.5q-30 10 -51 10q-25 0 -39.5 -6.5t-36.5 -24.5q-37 -32 -67 -2l-8 9q-11 12 -13.5 24zM309 573h326l-135 492 l-27 117l-29 -117z" />
<glyph unicode="&#xc4;" horiz-adv-x="944" d="M27 84l374 1300q16 52 72 52q54 0 70 -52l375 -1300q7 -26 -8 -50t-42 -30l-12 -2q-26 -6 -48 8t-30 41l-104 379h-404l-104 -379q-6 -26 -29 -40.5t-49 -8.5l-12 2q-27 6 -41.5 30t-7.5 50zM223 1573v12q0 28 19 47t47 19h12q28 0 47 -19t19 -47v-12q0 -28 -19 -47 t-47 -19h-12q-28 0 -47 19t-19 47zM309 573h326l-135 492l-27 117l-29 -117zM582 1573v12q0 28 18.5 47t46.5 19h12q28 0 47 -19t19 -47v-12q0 -28 -19 -47t-47 -19h-12q-28 0 -46.5 19t-18.5 47z" />
<glyph unicode="&#xc5;" horiz-adv-x="944" d="M27 84l374 1300q16 52 72 52q54 0 70 -52l375 -1300q7 -26 -8 -50t-42 -30l-12 -2q-26 -6 -48 8t-30 41l-104 379h-404l-104 -379q-6 -26 -29 -40.5t-49 -8.5l-12 2q-27 6 -41.5 30t-7.5 50zM233 1774q0 67 49 116t117 49q71 0 120.5 -48t49.5 -117q0 -71 -49 -120.5 t-119 -49.5q-68 0 -118 50t-50 120zM283 1774q0 -51 34 -86t84 -35q51 0 85 35t34 86q0 48 -34.5 82t-84.5 34q-49 0 -83.5 -34t-34.5 -82zM309 573h326l-135 492l-27 117l-29 -117z" />
<glyph unicode="&#xc6;" horiz-adv-x="1662" d="M19.5 49.5q-8.5 25.5 3.5 50.5l641 1297q16 37 67 37h760q27 0 46 -19t19 -47v-12q0 -28 -19 -47t-46 -19h-580v-430h508q27 0 46.5 -19t19.5 -46v-13q0 -27 -19.5 -46t-46.5 -19h-508v-574h580q27 0 46 -19t19 -46v-12q0 -28 -19 -47t-46 -19h-657q-28 0 -47 19t-19 47 v364h-422l-194 -393q-12 -25 -38 -34t-51 3l-10 6q-25 12 -33.5 37.5zM416 571h352v717z" />
<glyph unicode="&#xc7;" horiz-adv-x="1077" d="M156 287v788q0 149 104.5 254t253.5 105h365q28 0 46.5 -19t18.5 -47v-12q0 -28 -18.5 -47t-46.5 -19h-365q-89 0 -152 -63t-63 -152v-788q0 -60 41.5 -102t101.5 -42h437q28 0 46.5 -18.5t18.5 -46.5v-12q0 -28 -18.5 -47t-46.5 -19h-437q-118 0 -202 84t-84 203z M358 -300q0 25 19 44l196 207q19 19 43 19t43 -17q17 -17 17 -41t-17 -43l-198 -207q-17 -19 -42 -20t-42 16q-19 17 -19 42z" />
<glyph unicode="&#xc8;" horiz-adv-x="1112" d="M211 66v1302q0 28 18.5 47t46.5 19h658q28 0 46.5 -19t18.5 -47v-12q0 -28 -18.5 -47t-46.5 -19h-580v-430h508q28 0 47 -18.5t19 -46.5v-13q0 -28 -19 -46.5t-47 -18.5h-508v-574h580q28 0 46.5 -18.5t18.5 -46.5v-12q0 -28 -18.5 -47t-46.5 -19h-658q-28 0 -46.5 19 t-18.5 47zM370 1775q0 25 19 42q17 17 42 15.5t42 -20.5l199 -206q17 -19 17 -44t-17 -42q-19 -17 -43 -16t-43 20l-197 207q-19 19 -19 44z" />
<glyph unicode="&#xc9;" horiz-adv-x="1112" d="M211 66v1302q0 28 18.5 47t46.5 19h658q28 0 46.5 -19t18.5 -47v-12q0 -28 -18.5 -47t-46.5 -19h-580v-430h508q28 0 47 -18.5t19 -46.5v-13q0 -28 -19 -46.5t-47 -18.5h-508v-574h580q28 0 46.5 -18.5t18.5 -46.5v-12q0 -28 -18.5 -47t-46.5 -19h-658q-28 0 -46.5 19 t-18.5 47zM458 1562q0 25 19 44l197 206q19 19 43 20.5t43 -15.5q17 -17 17 -42t-17 -44l-199 -207q-17 -19 -42 -20t-42 16q-19 17 -19 42z" />
<glyph unicode="&#xca;" horiz-adv-x="1112" d="M211 66v1302q0 28 18.5 47t46.5 19h658q28 0 46.5 -19t18.5 -47v-12q0 -28 -18.5 -47t-46.5 -19h-580v-430h508q28 0 47 -18.5t19 -46.5v-13q0 -28 -19 -46.5t-47 -18.5h-508v-574h580q28 0 46.5 -18.5t18.5 -46.5v-12q0 -28 -18.5 -47t-46.5 -19h-658q-28 0 -46.5 19 t-18.5 47zM363 1549.5q-5 24.5 12 45.5l168 187q25 33 53 33t53 -33l166 -187q17 -21 13 -45.5t-25 -38.5t-43.5 -9.5t-40.5 24.5l-123 143l-123 -143q-18 -20 -40.5 -24.5t-43.5 9.5t-26 38.5z" />
<glyph unicode="&#xcb;" horiz-adv-x="1112" d="M211 66v1302q0 28 18.5 47t46.5 19h658q28 0 46.5 -19t18.5 -47v-12q0 -28 -18.5 -47t-46.5 -19h-580v-430h508q28 0 47 -18.5t19 -46.5v-13q0 -28 -19 -46.5t-47 -18.5h-508v-574h580q28 0 46.5 -18.5t18.5 -46.5v-12q0 -28 -18.5 -47t-46.5 -19h-658q-28 0 -46.5 19 t-18.5 47zM346 1573v12q0 28 19 47t47 19h12q28 0 46.5 -19t18.5 -47v-12q0 -28 -18.5 -47t-46.5 -19h-12q-28 0 -47 19t-19 47zM705 1573v12q0 28 18.5 47t46.5 19h12q28 0 47 -19t19 -47v-12q0 -28 -19 -47t-47 -19h-12q-28 0 -46.5 19t-18.5 47z" />
<glyph unicode="&#xcc;" horiz-adv-x="565" d="M122 1775q0 25 19 42q17 17 42 15.5t42 -20.5l199 -206q17 -19 17 -44t-17 -42q-19 -17 -43 -16t-43 20l-197 207q-19 19 -19 44zM211 66v1302q0 28 18.5 47t46.5 19h13q28 0 46.5 -19t18.5 -47v-1302q0 -28 -18.5 -47t-46.5 -19h-13q-28 0 -46.5 19t-18.5 47z" />
<glyph unicode="&#xcd;" horiz-adv-x="565" d="M169 1562q0 25 19 44l197 206q19 19 43 20.5t43 -15.5q17 -17 17 -42t-17 -44l-199 -207q-17 -19 -42 -20t-42 16q-19 17 -19 42zM211 66v1302q0 28 18.5 47t46.5 19h13q28 0 46.5 -19t18.5 -47v-1302q0 -28 -18.5 -47t-46.5 -19h-13q-28 0 -46.5 19t-18.5 47z" />
<glyph unicode="&#xce;" horiz-adv-x="565" d="M52 1549.5q-5 24.5 11 45.5l168 187q25 33 54 33q28 0 53 -33l166 -187q17 -21 13 -45.5t-25 -38.5t-43.5 -9.5t-40.5 24.5l-123 143l-123 -143q-18 -20 -40.5 -24.5t-43.5 9.5t-26 38.5zM211 66v1302q0 28 18.5 47t46.5 19h13q28 0 46.5 -19t18.5 -47v-1302 q0 -28 -18.5 -47t-46.5 -19h-13q-28 0 -46.5 19t-18.5 47z" />
<glyph unicode="&#xcf;" horiz-adv-x="565" d="M39 1573v12q0 28 18.5 47t46.5 19h13q28 0 46.5 -19t18.5 -47v-12q0 -28 -18.5 -47t-46.5 -19h-13q-28 0 -46.5 19t-18.5 47zM211 66v1302q0 28 18.5 47t46.5 19h13q28 0 46.5 -19t18.5 -47v-1302q0 -28 -18.5 -47t-46.5 -19h-13q-28 0 -46.5 19t-18.5 47zM397 1573v12 q0 28 19 47t47 19h12q28 0 47 -19t19 -47v-12q0 -28 -19 -47t-47 -19h-12q-28 0 -47 19t-19 47z" />
<glyph unicode="&#xd0;" horiz-adv-x="1226" d="M70 786q0 25 17.5 42.5t43.5 17.5h80v522q0 28 18.5 47t46.5 19h437q149 0 253.5 -105t104.5 -254v-788q0 -119 -84.5 -203t-202.5 -84h-508q-28 0 -46.5 19t-18.5 47v661h-80q-26 0 -43.5 17t-17.5 42zM354 143h430q60 0 102 42t42 102v788q0 89 -63 152t-152 63h-359 v-444h256q26 0 44 -17.5t18 -42.5t-18 -42t-44 -17h-256v-584z" />
<glyph unicode="&#xd1;" horiz-adv-x="1282" d="M211 66v1302q0 28 18.5 47t46.5 19h13q39 0 57 -37l567 -1026l25 -68l-10 68v997q0 28 18.5 47t46.5 19h13q28 0 46.5 -19t18.5 -47v-1302q0 -28 -18.5 -47t-46.5 -19h-9q-43 0 -61 37l-565 1020l-25 69l8 -69v-991q0 -28 -18.5 -47t-46.5 -19h-13q-28 0 -46.5 19 t-18.5 47zM351.5 1587q-2.5 12 4.5 24t13.5 19t19.5 19q53 47 123 47q34 0 64.5 -9t71 -27.5t59.5 -25.5q27 -10 51 -10q17 0 29 4t17.5 8t22.5 17q44 30 68 6l10 -8q15 -15 14 -38t-18 -36q-38 -33 -67.5 -47t-75.5 -14q-31 0 -62 9t-71.5 27.5t-57.5 24.5q-30 10 -51 10 q-25 0 -39.5 -6.5t-36.5 -24.5q-37 -32 -67 -2l-8 9q-11 12 -13.5 24z" />
<glyph unicode="&#xd2;" horiz-adv-x="1171" d="M156 358v717q0 149 104.5 254t253.5 105h143q149 0 254 -105t105 -254v-717q0 -149 -105 -253.5t-254 -104.5h-143q-149 0 -253.5 104.5t-104.5 253.5zM299 358q0 -89 63 -152t152 -63h143q89 0 152 63t63 152v717q0 89 -63 152t-152 63h-143q-89 0 -152 -63t-63 -152 v-717zM370 1775q0 25 19 42q17 17 42 15.5t42 -20.5l199 -206q17 -19 17 -44t-17 -42q-19 -17 -43 -16t-43 20l-197 207q-19 19 -19 44z" />
<glyph unicode="&#xd3;" horiz-adv-x="1171" d="M156 358v717q0 149 104.5 254t253.5 105h143q149 0 254 -105t105 -254v-717q0 -149 -105 -253.5t-254 -104.5h-143q-149 0 -253.5 104.5t-104.5 253.5zM299 358q0 -89 63 -152t152 -63h143q89 0 152 63t63 152v717q0 89 -63 152t-152 63h-143q-89 0 -152 -63t-63 -152 v-717zM458 1562q0 25 19 44l197 206q19 19 43 20.5t43 -15.5q17 -17 17 -42t-17 -44l-199 -207q-17 -19 -42 -20t-42 16q-19 17 -19 42z" />
<glyph unicode="&#xd4;" horiz-adv-x="1171" d="M156 358v717q0 149 104.5 254t253.5 105h143q149 0 254 -105t105 -254v-717q0 -149 -105 -253.5t-254 -104.5h-143q-149 0 -253.5 104.5t-104.5 253.5zM299 358q0 -89 63 -152t152 -63h143q89 0 152 63t63 152v717q0 89 -63 152t-152 63h-143q-89 0 -152 -63t-63 -152 v-717zM339 1549.5q-5 24.5 11 45.5l168 187q25 33 53 33q29 0 54 -33l166 -187q17 -21 12.5 -45.5t-25.5 -38.5t-43.5 -9.5t-40.5 24.5l-123 143l-122 -143q-18 -20 -40.5 -24.5t-43.5 9.5t-26 38.5z" />
<glyph unicode="&#xd5;" horiz-adv-x="1171" d="M156 358v717q0 149 104.5 254t253.5 105h143q149 0 254 -105t105 -254v-717q0 -149 -105 -253.5t-254 -104.5h-143q-149 0 -253.5 104.5t-104.5 253.5zM290 1587q-2 12 5 24t13.5 19t19.5 19q53 47 123 47q34 0 64.5 -9t70.5 -27.5t59 -25.5q27 -10 51 -10t36 5.5 t34 23.5q44 30 68 6l10 -8q15 -15 14 -38t-18 -36q-38 -33 -68 -47t-76 -14q-31 0 -61.5 9t-71 27.5t-57.5 24.5q-30 10 -51 10q-25 0 -39.5 -6.5t-36.5 -24.5q-37 -33 -68 -2l-8 9q-11 12 -13 24zM299 358q0 -89 63 -152t152 -63h143q89 0 152 63t63 152v717q0 89 -63 152 t-152 63h-143q-89 0 -152 -63t-63 -152v-717z" />
<glyph unicode="&#xd6;" horiz-adv-x="1171" d="M156 358v717q0 149 104.5 254t253.5 105h143q149 0 254 -105t105 -254v-717q0 -149 -105 -253.5t-254 -104.5h-143q-149 0 -253.5 104.5t-104.5 253.5zM299 358q0 -89 63 -152t152 -63h143q89 0 152 63t63 152v717q0 89 -63 152t-152 63h-143q-89 0 -152 -63t-63 -152 v-717zM326 1573v12q0 28 18.5 47t46.5 19h12q28 0 47 -19t19 -47v-12q0 -28 -19 -47t-47 -19h-12q-28 0 -46.5 19t-18.5 47zM684 1573v12q0 28 19 47t47 19h12q28 0 46.5 -19t18.5 -47v-12q0 -28 -18.5 -47t-46.5 -19h-12q-28 0 -47 19t-19 47z" />
<glyph unicode="&#xd7;" horiz-adv-x="935" d="M90 198q0 27 19 46l258 258l-258 258q-19 19 -19 46t19 46l10 8q19 20 45.5 20t46.5 -20l258 -258l258 258q19 20 45.5 20t46.5 -20l8 -8q20 -19 20 -46t-20 -46l-258 -258l258 -258q20 -19 20 -46t-20 -46l-8 -9q-20 -20 -46.5 -20t-45.5 20l-258 256l-258 -256 q-20 -20 -46.5 -20t-45.5 20l-10 9q-19 19 -19 46z" />
<glyph unicode="&#xd8;" horiz-adv-x="1171" d="M156 358v717q0 149 104.5 254t253.5 105h143q116 0 209 -68l47 96q12 23 35.5 31.5t46.5 -2.5q22 -11 29.5 -34.5t-4.5 -45.5l-66 -135q62 -91 62 -201v-717q0 -149 -105 -253.5t-254 -104.5h-143q-91 0 -168 41l-74 -150q-10 -23 -33.5 -32t-45.5 2q-22 12 -29.5 35.5 t2.5 46.5l86 172q-96 103 -96 243zM299 358q0 -50 23 -98l479 975q-58 55 -144 55h-143q-89 0 -152 -63t-63 -152v-717zM410 170q52 -27 104 -27h143q89 0 152 63t63 152v717q0 21 -2 31z" />
<glyph unicode="&#xd9;" horiz-adv-x="1241" d="M190 430v938q0 28 19 47t47 19h12q28 0 47 -19t19 -47v-938q0 -118 84 -202.5t203 -84.5q118 0 202 84t84 203v938q0 28 19 47t47 19h12q28 0 47 -19t19 -47v-938q0 -178 -125.5 -304t-304.5 -126t-305 126t-126 304zM417 1775q0 25 19 42q17 17 42 15.5t42 -20.5 l199 -206q17 -19 17 -44t-17 -42q-19 -17 -43 -16t-43 20l-197 207q-19 19 -19 44z" />
<glyph unicode="&#xda;" horiz-adv-x="1241" d="M190 430v938q0 28 19 47t47 19h12q28 0 47 -19t19 -47v-938q0 -118 84 -202.5t203 -84.5q118 0 202 84t84 203v938q0 28 19 47t47 19h12q28 0 47 -19t19 -47v-938q0 -178 -125.5 -304t-304.5 -126t-305 126t-126 304zM470 1562q0 25 19 44l197 206q19 19 43 20.5 t43 -15.5q17 -17 17 -42t-17 -44l-199 -207q-17 -19 -42 -20t-42 16q-19 17 -19 42z" />
<glyph unicode="&#xdb;" horiz-adv-x="1241" d="M190 430v938q0 28 19 47t47 19h12q28 0 47 -19t19 -47v-938q0 -118 84 -202.5t203 -84.5q118 0 202 84t84 203v938q0 28 19 47t47 19h12q28 0 47 -19t19 -47v-938q0 -178 -125.5 -304t-304.5 -126t-305 126t-126 304zM380 1549.5q-5 24.5 11 45.5l168 187q25 33 53 33 q29 0 54 -33l165 -187q17 -21 13 -45.5t-25 -38.5t-43.5 -9.5t-40.5 24.5l-123 143l-123 -143q-18 -20 -40 -24.5t-43 9.5t-26 38.5z" />
<glyph unicode="&#xdc;" horiz-adv-x="1241" d="M190 430v938q0 28 19 47t47 19h12q28 0 47 -19t19 -47v-938q0 -118 84 -202.5t203 -84.5q118 0 202 84t84 203v938q0 28 19 47t47 19h12q28 0 47 -19t19 -47v-938q0 -178 -125.5 -304t-304.5 -126t-305 126t-126 304zM346 1573v12q0 28 19 47t47 19h12q28 0 46.5 -19 t18.5 -47v-12q0 -28 -18.5 -47t-46.5 -19h-12q-28 0 -47 19t-19 47zM705 1573v12q0 28 18.5 47t46.5 19h12q28 0 47 -19t19 -47v-12q0 -28 -19 -47t-47 -19h-12q-28 0 -46.5 19t-18.5 47z" />
<glyph unicode="&#xdd;" horiz-adv-x="1026" d="M17.5 1372q3.5 26 25.5 41l10 8q23 15 50 11t42 -27l369 -559l367 559q15 23 42 27t50 -11l10 -8q21 -15 25.5 -41t-9.5 -49l-413 -631v-626q0 -27 -19.5 -46.5t-46.5 -19.5h-12q-28 0 -47 19t-19 47v628l-413 629q-15 23 -11.5 49zM470 1562q0 25 19 44l197 206 q19 19 43 20.5t43 -15.5q17 -17 17 -42t-17 -44l-199 -207q-17 -19 -42 -20t-42 16q-19 17 -19 42z" />
<glyph unicode="&#xde;" horiz-adv-x="1433" d="M90 842q3 5 20.5 37.5t22 40.5t21 36.5t24.5 39.5t24.5 34t28.5 35.5t29 30t35 30t37 23.5l184 -231l371 368l383 -385q18 -18 18 -47v-338q0 -31 -18 -49l-164 -164l237 -203q-39 -58 -118 -117t-138 -89l-59 -29q-201 82 -342 163t-258 203q-117 121 -193.5 267.5 t-144.5 343.5zM190 834q72 -190 144 -323t184 -243q176 -169 508 -301q124 64 188 121l-229 193q-47 -43 -92 -138q-103 60 -192.5 134.5t-145 137.5t-99.5 126.5t-62.5 99.5t-26.5 59q94 37 137 86l-191 236q-18 -19 -36.5 -45t-28.5 -43t-30.5 -52.5t-27.5 -47.5zM492 655 q64 -109 160.5 -209.5t205.5 -173.5q39 65 135 129l41 -36l187 186l-142 141l135 135l-327 330l-312 -313l48 -60q-69 -92 -131 -129zM657 784l29 31l256 -256l-31 -31zM737 864l29 31l332 -332l-29 -31zM817 944l29 31l217 -217l-29 -29z" />
<glyph unicode="&#xdf;" horiz-adv-x="1191" d="M184 66v1081q0 119 84 203t203 84h287q118 0 202 -84t84 -203q0 -129 -96 -215q96 -86 96 -215v-430q0 -119 -84 -203t-202 -84h-150q-28 0 -46.5 19t-18.5 47v12q0 28 18.5 46.5t46.5 18.5h150q60 0 101.5 42t41.5 102v430q0 60 -41.5 101.5t-101.5 41.5h-150 q-28 0 -46.5 19t-18.5 47v12q0 28 18.5 47t46.5 19h150q60 0 101.5 41.5t41.5 101.5t-41.5 101.5t-101.5 41.5h-287q-60 0 -101.5 -41.5t-41.5 -101.5v-1081q0 -28 -19 -47t-47 -19h-12q-28 0 -47 19t-19 47z" />
<glyph unicode="&#xe0;" horiz-adv-x="995" d="M104 250v72q0 104 73.5 177.5t176.5 73.5h324v144q0 60 -41.5 101.5t-101.5 41.5h-293q-28 0 -47 19t-19 47v12q0 28 19 47t47 19h293q118 0 202 -84t84 -203v-651q0 -28 -18.5 -47t-46.5 -19h-402q-103 0 -176.5 73.5t-73.5 176.5zM248 250q0 -44 31.5 -75.5t74.5 -31.5 h324v287h-324q-43 0 -74.5 -32t-31.5 -76v-72zM270 1375q0 25 19 42q17 17 42 16t42 -20l198 -207q17 -19 17 -44t-17 -42q-19 -17 -43 -16t-43 20l-196 207q-19 19 -19 44z" />
<glyph unicode="&#xe1;" horiz-adv-x="995" d="M104 250v72q0 104 73.5 177.5t176.5 73.5h324v144q0 60 -41.5 101.5t-101.5 41.5h-293q-28 0 -47 19t-19 47v12q0 28 19 47t47 19h293q118 0 202 -84t84 -203v-651q0 -28 -18.5 -47t-46.5 -19h-402q-103 0 -176.5 73.5t-73.5 176.5zM248 250q0 -44 31.5 -75.5t74.5 -31.5 h324v287h-324q-43 0 -74.5 -32t-31.5 -76v-72zM339 1172.5q0 25.5 19 44.5l197 206q19 19 43 20t43 -16q17 -17 17 -42t-17 -44l-199 -206q-17 -19 -42 -20.5t-42 15.5q-19 17 -19 42.5z" />
<glyph unicode="&#xe2;" horiz-adv-x="995" d="M104 250v72q0 104 73.5 177.5t176.5 73.5h324v144q0 60 -41.5 101.5t-101.5 41.5h-293q-28 0 -47 19t-19 47v12q0 28 19 47t47 19h293q118 0 202 -84t84 -203v-651q0 -28 -18.5 -47t-46.5 -19h-402q-103 0 -176.5 73.5t-73.5 176.5zM246 1162.5q-5 24.5 12 45.5l168 187 q24 32 53 32t53 -32l166 -187q17 -21 13 -45.5t-25 -38.5t-43.5 -9.5t-40.5 24.5l-123 143l-123 -143q-18 -20 -40.5 -24.5t-43.5 9.5t-26 38.5zM248 250q0 -44 31.5 -75.5t74.5 -31.5h324v287h-324q-43 0 -74.5 -32t-31.5 -76v-72z" />
<glyph unicode="&#xe3;" horiz-adv-x="995" d="M104 250v72q0 104 73.5 177.5t176.5 73.5h324v144q0 60 -41.5 101.5t-101.5 41.5h-293q-28 0 -47 19t-19 47v12q0 28 19 47t47 19h293q118 0 202 -84t84 -203v-651q0 -28 -18.5 -47t-46.5 -19h-402q-103 0 -176.5 73.5t-73.5 176.5zM202 1204q-2 12 5 24t13.5 19t19.5 19 q53 47 122 47q34 0 64.5 -9t71 -27.5t59.5 -25.5q27 -10 51 -10t36 5.5t34 23.5q43 30 67 6l11 -8q15 -15 14 -38t-18 -36q-38 -33 -68 -47t-76 -14q-31 0 -61.5 9t-71 27.5t-57.5 24.5q-30 10 -51 10q-26 0 -40.5 -6.5t-35.5 -23.5q-38 -33 -68 -3l-8 9q-11 12 -13 24z M248 250q0 -44 31.5 -75.5t74.5 -31.5h324v287h-324q-43 0 -74.5 -32t-31.5 -76v-72z" />
<glyph unicode="&#xe4;" horiz-adv-x="995" d="M104 250v72q0 104 73.5 177.5t176.5 73.5h324v144q0 60 -41.5 101.5t-101.5 41.5h-293q-28 0 -47 19t-19 47v12q0 28 19 47t47 19h293q118 0 202 -84t84 -203v-651q0 -28 -18.5 -47t-46.5 -19h-402q-103 0 -176.5 73.5t-73.5 176.5zM238 1176v12q0 28 18.5 46.5 t46.5 18.5h12q28 0 47 -18.5t19 -46.5v-12q0 -28 -19 -47t-47 -19h-12q-28 0 -46.5 19t-18.5 47zM248 250q0 -44 31.5 -75.5t74.5 -31.5h324v287h-324q-43 0 -74.5 -32t-31.5 -76v-72zM596 1176v12q0 28 19 46.5t47 18.5h12q28 0 46.5 -18.5t18.5 -46.5v-12q0 -28 -18.5 -47 t-46.5 -19h-12q-28 0 -47 19t-19 47z" />
<glyph unicode="&#xe5;" horiz-adv-x="995" d="M104 250v72q0 104 73.5 177.5t176.5 73.5h324v144q0 60 -41.5 101.5t-101.5 41.5h-293q-28 0 -47 19t-19 47v12q0 28 19 47t47 19h293q118 0 202 -84t84 -203v-651q0 -28 -18.5 -47t-46.5 -19h-402q-103 0 -176.5 73.5t-73.5 176.5zM248 250q0 -44 31.5 -75.5t74.5 -31.5 h324v287h-324q-43 0 -74.5 -32t-31.5 -76v-72zM287 1380q0 68 49.5 117t116.5 49q71 0 120.5 -48.5t49.5 -117.5q0 -71 -49 -120.5t-119 -49.5q-68 0 -118 50t-50 120zM336 1380q0 -51 34.5 -85.5t84.5 -34.5q51 0 84.5 34.5t33.5 85.5q0 48 -34 82.5t-84 34.5 q-49 0 -84 -34.5t-35 -82.5z" />
<glyph unicode="&#xe6;" horiz-adv-x="1556" d="M104 250v72q0 104 73.5 176.5t176.5 72.5h324v146q0 60 -41.5 101.5t-101.5 41.5h-293q-28 0 -47 19t-19 47v12q0 28 19 47t47 19h293q71 0 132.5 -32.5t100.5 -88.5q51 57 120.5 89t147.5 32h37q148 0 252.5 -105.5t104.5 -253.5v-151q0 -26 -19 -45t-47 -19h-543v-143 q0 -61 42.5 -102.5t101.5 -41.5h364q27 0 46.5 -19.5t19.5 -45.5v-12q0 -28 -19 -47t-47 -19h-364q-130 0 -213 98q-87 -98 -217 -98h-181q-103 0 -176.5 73.5t-73.5 176.5zM248 250q0 -44 31.5 -75.5t74.5 -31.5h181q60 0 101.5 42t41.5 102v143h-324q-43 0 -74.5 -32 t-31.5 -76v-72zM821 571h465v74q0 89 -62 152t-151 63h-37q-87 0 -150.5 -60.5t-64.5 -144.5v-84z" />
<glyph unicode="&#xe7;" horiz-adv-x="870" d="M129 215v502q0 119 84.5 203t202.5 84h293q28 0 46.5 -19t18.5 -47v-12q0 -28 -18.5 -47t-46.5 -19h-293q-60 0 -102 -41.5t-42 -101.5v-502q0 -29 21.5 -50.5t50.5 -21.5h365q28 0 46.5 -18.5t18.5 -46.5v-12q0 -28 -18.5 -47t-46.5 -19h-365q-89 0 -152 63t-63 152z M276 -300q0 25 19 44l197 207q19 19 43 19t43 -17q17 -17 17 -41t-17 -43l-199 -207q-17 -19 -42 -20t-42 16q-19 17 -19 42z" />
<glyph unicode="&#xe8;" d="M129 287v358q0 149 105 254t253 105h37q149 0 254 -105t105 -254v-149q-1 -28 -20.5 -47t-45.5 -19h-545v-143q0 -60 42 -102t102 -42h364q28 0 47 -18.5t19 -46.5v-12q0 -28 -19 -47t-47 -19h-364q-118 0 -202.5 84t-84.5 203zM272 573h467v72q0 89 -63 152t-152 63h-37 q-89 0 -152 -63t-63 -152v-72zM290 1375q0 25 19 42q17 17 42 16t42 -20l199 -207q17 -19 17 -44t-17 -42q-19 -17 -43 -16t-43 20l-197 207q-19 19 -19 44z" />
<glyph unicode="&#xe9;" d="M129 287v358q0 149 105 254t253 105h37q149 0 254 -105t105 -254v-149q-1 -28 -20.5 -47t-45.5 -19h-545v-143q0 -60 42 -102t102 -42h364q28 0 47 -18.5t19 -46.5v-12q0 -28 -19 -47t-47 -19h-364q-118 0 -202.5 84t-84.5 203zM272 573h467v72q0 89 -63 152t-152 63h-37 q-89 0 -152 -63t-63 -152v-72zM339 1172.5q0 25.5 19 44.5l197 206q19 19 43 20t43 -16q17 -17 17 -42t-17 -44l-199 -206q-17 -19 -42 -20.5t-42 15.5q-19 17 -19 42.5z" />
<glyph unicode="&#xea;" d="M129 287v358q0 149 105 254t253 105h37q149 0 254 -105t105 -254v-149q-1 -28 -20.5 -47t-45.5 -19h-545v-143q0 -60 42 -102t102 -42h364q28 0 47 -18.5t19 -46.5v-12q0 -28 -19 -47t-47 -19h-364q-118 0 -202.5 84t-84.5 203zM267 1162.5q-5 24.5 12 45.5l167 187 q24 32 54 32q29 0 53 -32l166 -187q17 -21 13 -45.5t-25 -38.5t-43.5 -9.5t-40.5 24.5l-123 143l-123 -143q-18 -20 -40.5 -24.5t-43.5 9.5t-26 38.5zM272 573h467v72q0 89 -63 152t-152 63h-37q-89 0 -152 -63t-63 -152v-72z" />
<glyph unicode="&#xeb;" d="M129 287v358q0 149 105 254t253 105h37q149 0 254 -105t105 -254v-149q-1 -28 -20.5 -47t-45.5 -19h-545v-143q0 -60 42 -102t102 -42h364q28 0 47 -18.5t19 -46.5v-12q0 -28 -19 -47t-47 -19h-364q-118 0 -202.5 84t-84.5 203zM258 1176v12q0 28 19 46.5t47 18.5h12 q28 0 46.5 -18.5t18.5 -46.5v-12q0 -28 -18.5 -47t-46.5 -19h-12q-28 0 -47 19t-19 47zM272 573h467v72q0 89 -63 152t-152 63h-37q-89 0 -152 -63t-63 -152v-72zM616 1176v12q0 28 19 46.5t47 18.5h12q28 0 47 -18.5t19 -46.5v-12q0 -28 -19 -47t-47 -19h-12q-28 0 -47 19 t-19 47z" />
<glyph unicode="&#xec;" horiz-adv-x="499" d="M65 1375q0 25 19 42q17 17 42 16t42 -20l199 -207q17 -19 17 -44t-17 -42q-19 -17 -43 -16t-43 20l-197 207q-19 19 -19 44zM178 66v872q0 28 19 47t47 19h12q28 0 47 -19t19 -47v-872q0 -28 -19 -47t-47 -19h-12q-28 0 -47 19t-19 47z" />
<glyph unicode="&#xed;" horiz-adv-x="499" d="M135 1172.5q0 25.5 19 44.5l196 206q19 19 43 20t43 -16q17 -17 17 -42t-17 -44l-198 -206q-17 -19 -42 -20.5t-42 15.5q-19 17 -19 42.5zM178 66v872q0 28 19 47t47 19h12q28 0 47 -19t19 -47v-872q0 -28 -19 -47t-47 -19h-12q-28 0 -47 19t-19 47z" />
<glyph unicode="&#xee;" horiz-adv-x="499" d="M21 1162.5q-5 24.5 12 45.5l168 187q24 32 53 32t53 -32l166 -187q17 -21 13 -45.5t-25 -38.5t-43.5 -9.5t-40.5 24.5l-123 143l-123 -143q-18 -20 -40.5 -24.5t-43.5 9.5t-26 38.5zM178 66v872q0 28 19 47t47 19h12q28 0 47 -19t19 -47v-872q0 -28 -19 -47t-47 -19h-12 q-28 0 -47 19t-19 47z" />
<glyph unicode="&#xef;" horiz-adv-x="505" d="M2 1176v12q0 28 19 46.5t47 18.5h12q28 0 46.5 -18.5t18.5 -46.5v-12q0 -28 -18.5 -47t-46.5 -19h-12q-28 0 -47 19t-19 47zM178 66v872q0 27 19.5 46.5t46.5 19.5h12q28 0 47 -19t19 -47v-872q0 -28 -19 -47t-47 -19h-12q-27 0 -46.5 19.5t-19.5 46.5zM360 1176v12 q0 28 19 46.5t47 18.5h12q28 0 47 -18.5t19 -46.5v-12q0 -28 -19 -47t-47 -19h-12q-28 0 -47 19t-19 47z" />
<glyph unicode="&#xf0;" horiz-adv-x="1587" d="M97 748q0 59 42 102l199 199l-68 69q-8 8 -8 20t8 19l27 27q7 8 18.5 8t20.5 -8l67 -70l52 51q43 43 102 43t100 -43l785 -782q39 -39 47 -92t-25 -90l-340 -338q-41 -41 -100 -41t-100 41l-785 784q-42 42 -42 101zM170 748.5q0 -28.5 20 -48.5l785 -784q20 -20 49 -20 t49 20l316 315q22 22 22 50.5t-22 48.5l-783 784q-20 20 -49 20t-49 -20l-318 -317q-20 -20 -20 -48.5zM248 756q0 22 14 37q15 15 37 15t37 -15t15 -37t-15 -37t-37 -15t-37 15q-14 15 -14 37zM366 651.5q0 35.5 25 61.5l203 200q25 25 60 25t61 -25l133 -133 q25 -26 25 -61.5t-25 -61.5l-201 -200q-25 -25 -60.5 -25t-60.5 25l-135 133q-25 26 -25 61.5zM666 317q-14 13 0 27l53 53q5 6 12.5 6t13.5 -6l19 -18q4 -5 4 -13t-4 -14l-55 -53q-5 -5 -13 -5t-14 5zM758 232q0 8 6 14l53 53q6 5 14.5 5t12.5 -5l18 -18q10 -13 0 -27 l-53 -53q-6 -6 -14.5 -6t-12.5 6l-18 18q-6 5 -6 13zM780 452q0 8 6 13l54 53q13 13 26 0l19 -16q5 -6 5 -14t-5 -13l-54 -53q-6 -6 -13.5 -6t-12.5 6l-19 16q-6 6 -6 14zM862 119q-11 15 0 26l56 54q4 6 12 6t14 -6l17 -17q6 -6 6 -14t-6 -12l-54 -54q-5 -6 -12.5 -6 t-13.5 6zM880 352.5q0 8.5 5 14.5l53 53q6 6 14 6t13 -6l18 -19q6 -5 6 -12.5t-6 -13.5l-53 -53q-14 -10 -27 0l-18 18q-5 4 -5 12.5zM901 573.5q0 8.5 6 12.5l54 55q15 11 26 0l19 -18q6 -6 6 -14.5t-6 -12.5l-54 -53q-6 -6 -14 -6t-12 6l-19 16q-6 6 -6 14.5zM957 32.5 q0 8.5 6 14.5l53 53q13 13 26 0l19 -18q2 -2 2 -4q8 -13 -2 -23l-53 -53q-6 -4 -14 -4t-13 4l-18 18q-6 4 -6 12.5zM979 254q0 8 6 12l53 56q4 4 12.5 4t14.5 -4l16 -19q6 -6 6 -14.5t-6 -12.5l-53 -53q-5 -6 -13 -6t-14 6l-16 17q-6 6 -6 14zM1006 461q-10 13 0 26l55 54 q5 6 12.5 6t13.5 -6l17 -19q6 -4 6 -12t-6 -14l-53 -54q-5 -4 -13 -4t-14 4zM1077 155.5q0 8.5 6 12.5l54 53q6 6 13.5 6t12.5 -6l19 -18q4 -5 4 -13t-4 -14l-54 -53q-15 -11 -26 0l-19 18q-6 6 -6 14.5zM1100 374.5q0 8.5 6 14.5l53 53q13 10 27 0l18 -18q10 -14 0 -27 l-53 -53q-6 -6 -14.5 -6t-12.5 6l-18 18q-6 4 -6 12.5zM1200 276q0 8 4 13l53 53q6 6 14.5 6t12.5 -6l19 -16q6 -6 6 -14t-6 -13l-54 -53q-13 -13 -26 0l-19 16q-4 6 -4 14z" />
<glyph unicode="&#xf1;" horiz-adv-x="1075" d="M184 66v872q0 28 19 47t47 19h364q118 0 202.5 -84t84.5 -203v-651q0 -28 -18.5 -47t-46.5 -19h-13q-28 0 -46.5 19t-18.5 47v651q0 60 -42 101.5t-102 41.5h-286v-794q0 -28 -19 -47t-47 -19h-12q-28 0 -47 19t-19 47zM243 1204q-2 12 5 24t13.5 19t19.5 19 q53 47 122 47q34 0 64.5 -9t71 -27.5t59.5 -25.5q27 -10 51 -10t36 5.5t34 23.5q43 30 67 6l11 -8q15 -15 14 -38t-18 -36q-38 -33 -68 -47t-76 -14q-31 0 -61.5 9t-71 27.5t-57.5 24.5q-30 10 -51 10q-26 0 -40.5 -6.5t-35.5 -23.5q-38 -33 -68 -3l-8 9q-11 12 -13 24z" />
<glyph unicode="&#xf2;" d="M129 358v287q0 149 105 254t253 105h37q149 0 254 -105t105 -254v-287q-1 -149 -106 -253.5t-253 -104.5h-37q-149 0 -253.5 104.5t-104.5 253.5zM272 358q0 -89 63 -152t152 -63h37q89 0 152 63t63 152v287q0 89 -63 152t-152 63h-37q-89 0 -152 -63t-63 -152v-287z M331 1375q0 25 19 42q17 17 42 16t42 -20l199 -207q17 -19 17 -44t-17 -42q-19 -17 -43 -16t-43 20l-197 207q-19 19 -19 44z" />
<glyph unicode="&#xf3;" d="M129 358v287q0 149 105 254t253 105h37q149 0 254 -105t105 -254v-287q-1 -149 -106 -253.5t-253 -104.5h-37q-149 0 -253.5 104.5t-104.5 253.5zM272 358q0 -89 63 -152t152 -63h37q89 0 152 63t63 152v287q0 89 -63 152t-152 63h-37q-89 0 -152 -63t-63 -152v-287z M339 1172.5q0 25.5 19 44.5l197 206q19 19 43 20t43 -16q17 -17 17 -42t-17 -44l-199 -206q-17 -19 -42 -20.5t-42 15.5q-19 17 -19 42.5z" />
<glyph unicode="&#xf4;" d="M129 358v287q0 149 105 254t253 105h37q149 0 254 -105t105 -254v-287q-1 -149 -106 -253.5t-253 -104.5h-37q-149 0 -253.5 104.5t-104.5 253.5zM272 358q0 -89 63 -152t152 -63h37q89 0 152 63t63 152v287q0 89 -63 152t-152 63h-37q-89 0 -152 -63t-63 -152v-287z M275 1162.5q-5 24.5 12 45.5l168 187q24 32 53 32t53 -32l166 -187q17 -21 13 -45.5t-25 -38.5t-43.5 -9.5t-40.5 24.5l-123 143l-123 -143q-18 -20 -40.5 -24.5t-43.5 9.5t-26 38.5z" />
<glyph unicode="&#xf5;" d="M129 358v287q0 149 105 254t253 105h37q149 0 254 -105t105 -254v-287q-1 -149 -106 -253.5t-253 -104.5h-37q-149 0 -253.5 104.5t-104.5 253.5zM222.5 1204q-2.5 12 4.5 24t13.5 19t19.5 19q53 47 123 47q34 0 64.5 -9t71 -27.5t59.5 -25.5q27 -10 51 -10q17 0 29 4 t17.5 8t22.5 17q44 30 68 6l10 -8q15 -15 14 -38t-18 -36q-38 -33 -67.5 -47t-75.5 -14q-31 0 -62 9t-71.5 27.5t-57.5 24.5q-30 10 -51 10q-26 0 -40.5 -6.5t-35.5 -23.5q-37 -33 -67 -3l-8 9q-11 12 -13.5 24zM272 358q0 -89 63 -152t152 -63h37q89 0 152 63t63 152v287 q0 89 -63 152t-152 63h-37q-89 0 -152 -63t-63 -152v-287z" />
<glyph unicode="&#xf6;" d="M129 358v287q0 149 105 254t253 105h37q149 0 254 -105t105 -254v-287q-1 -149 -106 -253.5t-253 -104.5h-37q-149 0 -253.5 104.5t-104.5 253.5zM258 1176v12q0 28 19 46.5t47 18.5h12q28 0 46.5 -18.5t18.5 -46.5v-12q0 -28 -18.5 -47t-46.5 -19h-12q-28 0 -47 19 t-19 47zM272 358q0 -89 63 -152t152 -63h37q89 0 152 63t63 152v287q0 89 -63 152t-152 63h-37q-89 0 -152 -63t-63 -152v-287zM616 1176v12q0 28 19 46.5t47 18.5h12q28 0 47 -18.5t19 -46.5v-12q0 -28 -19 -47t-47 -19h-12q-28 0 -47 19t-19 47z" />
<glyph unicode="&#xf7;" horiz-adv-x="1069" d="M104 496v12q0 28 19 46.5t47 18.5h729q28 0 47 -18.5t19 -46.5v-12q0 -28 -19 -47t-47 -19h-729q-28 0 -47 19t-19 47zM438 223v17q0 34 24 58t58 24h15q34 0 57.5 -24t23.5 -58v-17q0 -34 -23.5 -58t-57.5 -24h-15q-34 0 -58 24t-24 58zM438 780v15q0 34 24 58t58 24h15 q34 0 57.5 -24t23.5 -58v-15q0 -34 -23.5 -58t-57.5 -24h-15q-34 0 -58 24t-24 58z" />
<glyph unicode="&#xf8;" d="M129 358v287q0 149 105 254t253 105h37q82 0 154 -35l53 108q10 23 34.5 31.5t47.5 -2.5q21 -10 28.5 -34.5t-3.5 -47.5l-62 -125q107 -107 107 -254v-287q-1 -149 -106 -253.5t-253 -104.5h-37q-70 0 -139 29l-57 -117q-10 -23 -34 -32.5t-46 1.5q-23 12 -30.5 35.5 t3.5 46.5l64 129q-119 106 -119 266zM272 358q0 -70 43 -129l299 611q-45 20 -90 20h-37q-89 0 -152 -63t-63 -152v-287zM412 158q38 -15 75 -15h37q89 0 152 63t63 152v287q0 60 -32 113z" />
<glyph unicode="&#xf9;" horiz-adv-x="1075" d="M174 287v651q0 28 19 47t47 19h12q28 0 46.5 -19t18.5 -47v-651q0 -60 42 -102t102 -42h287v795q0 28 18.5 47t46.5 19h12q28 0 47 -19t19 -47v-872q0 -28 -19 -47t-47 -19h-364q-119 0 -203 84t-84 203zM311 1375q0 25 19 42q17 17 42 16t42 -20l198 -207q17 -19 17 -44 t-17 -42q-19 -17 -43 -16t-43 20l-196 207q-19 19 -19 44z" />
<glyph unicode="&#xfa;" horiz-adv-x="1075" d="M174 287v651q0 28 19 47t47 19h12q28 0 46.5 -19t18.5 -47v-651q0 -60 42 -102t102 -42h287v795q0 28 18.5 47t46.5 19h12q28 0 47 -19t19 -47v-872q0 -28 -19 -47t-47 -19h-364q-119 0 -203 84t-84 203zM399 1172.5q0 25.5 19 44.5l196 206q19 19 43 20t43 -16 q17 -17 17 -42t-17 -44l-198 -206q-17 -19 -42 -20.5t-42 15.5q-19 17 -19 42.5z" />
<glyph unicode="&#xfb;" horiz-adv-x="1075" d="M174 287v651q0 28 19 47t47 19h12q28 0 46.5 -19t18.5 -47v-651q0 -60 42 -102t102 -42h287v795q0 28 18.5 47t46.5 19h12q28 0 47 -19t19 -47v-872q0 -28 -19 -47t-47 -19h-364q-119 0 -203 84t-84 203zM300 1166.5q-5 24.5 11 45.5l168 187q25 33 53 33q29 0 54 -33 l166 -187q17 -21 12.5 -45.5t-25.5 -38.5t-43.5 -9.5t-40.5 24.5l-123 143l-122 -143q-18 -20 -40.5 -24.5t-43.5 9.5t-26 38.5z" />
<glyph unicode="&#xfc;" horiz-adv-x="1075" d="M174 287v651q0 28 19 47t47 19h12q28 0 46.5 -19t18.5 -47v-651q0 -60 42 -102t102 -42h287v795q0 28 18.5 47t46.5 19h12q28 0 47 -19t19 -47v-872q0 -28 -19 -47t-47 -19h-364q-119 0 -203 84t-84 203zM279 1176v12q0 28 18.5 46.5t46.5 18.5h12q28 0 47 -18.5 t19 -46.5v-12q0 -28 -19 -47t-47 -19h-12q-28 0 -46.5 19t-18.5 47zM637 1176v12q0 28 18.5 46.5t46.5 18.5h13q28 0 46.5 -18.5t18.5 -46.5v-12q0 -28 -18.5 -47t-46.5 -19h-13q-28 0 -46.5 19t-18.5 47z" />
<glyph unicode="&#xfd;" horiz-adv-x="790" d="M37 909q-9 25 1.5 50t35.5 34l10 6q27 9 52 -1.5t34 -34.5l236 -637l14 -70l8 70l199 630q9 26 33 39t49 4l12 -4q26 -7 38.5 -31t4.5 -51l-352 -1122q-28 -85 -107 -126t-164 -13l-6 2q-26 7 -38.5 31t-4.5 51l4 12q8 25 32 37.5t50 5.5l6 -2q28 -9 54.5 4t35.5 41 l74 238zM309 1172.5q0 25.5 19 44.5l196 206q19 19 43 20t43 -16q17 -17 17 -42t-17 -44l-198 -206q-17 -19 -42 -20.5t-42 15.5q-19 17 -19 42.5z" />
<glyph unicode="&#xfe;" horiz-adv-x="1904" d="M96 0v1047h1712v-1047h-1712zM176 131l496 397l-496 398v-795zM240 80h1423l-494 395l-131 -104q-37 -37 -86 -37q-47 0 -84 37l-133 104zM258 967l666 -539q10 -10 28 -10t29 10l666 539h-1389zM1233 526l496 -397v797z" />
<glyph unicode="&#xff;" horiz-adv-x="780" d="M37 909q-9 25 1.5 50t35.5 34l10 6q27 9 52 -1.5t34 -34.5l236 -637l14 -70l8 70l199 630q9 26 33 39t49 4l12 -4q26 -7 38.5 -31t4.5 -51l-352 -1122q-28 -85 -107 -126t-164 -13l-6 2q-26 7 -38.5 31t-4.5 51l4 12q8 25 32 37.5t50 5.5l6 -2q28 -9 54.5 4t35.5 41 l74 238zM156 1176v12q0 28 18.5 46.5t46.5 18.5h12q28 0 47 -18.5t19 -46.5v-12q0 -28 -19 -47t-47 -19h-12q-28 0 -46.5 19t-18.5 47zM514 1176v12q0 28 19 46.5t47 18.5h12q28 0 46.5 -18.5t18.5 -46.5v-12q0 -28 -18.5 -47t-46.5 -19h-12q-28 0 -47 19t-19 47z" />
<glyph unicode="&#x152;" horiz-adv-x="1775" d="M156 358v717q0 149 104.5 254t253.5 105h143q143 0 234 -109v43q0 28 18.5 47t46.5 19h639q28 0 47 -19t19 -47v-12q0 -28 -19 -47t-47 -19h-579v-430h508q28 0 46.5 -18.5t18.5 -46.5v-13q0 -28 -18.5 -46.5t-46.5 -18.5h-508v-574h579q28 0 47 -18.5t19 -46.5v-12 q0 -28 -19 -47t-47 -19h-639q-28 0 -46.5 19t-18.5 47v40q-102 -106 -234 -106h-143q-149 0 -253.5 104.5t-104.5 253.5zM299 358q0 -89 63 -152t152 -63h143q89 0 152 63t63 152v717q0 89 -63 152t-152 63h-143q-89 0 -152 -63t-63 -152v-717z" />
<glyph unicode="&#x153;" horiz-adv-x="1619" d="M129 358v287q0 149 105 254t253 105h37q89 0 164.5 -41.5t122.5 -118.5q44 75 121 117.5t166 42.5h35q149 0 254 -105t104 -254v-149q0 -28 -19 -47t-47 -19h-544v-143q0 -60 42.5 -102t102.5 -42h365q27 0 46 -19t19 -46v-12q0 -28 -19 -47t-46 -19h-365 q-154 0 -235 139q-42 -70 -112.5 -104.5t-154.5 -34.5h-37q-149 0 -253.5 104.5t-104.5 253.5zM272 358q0 -89 63 -152t152 -63h37q89 0 152 63t63 152l-2 287q0 89 -62 152t-151 63h-37q-89 0 -152 -63t-63 -152v-287zM881 571h467v74q0 89 -63 152t-152 63h-35 q-91 0 -154 -63t-63 -152v-74z" />
<glyph unicode="&#x178;" horiz-adv-x="1026" d="M17.5 1372q3.5 26 25.5 41l10 8q23 15 50 11t42 -27l369 -559l367 559q15 23 42 27t50 -11l10 -8q21 -15 25.5 -41t-9.5 -49l-413 -631v-626q0 -27 -19.5 -46.5t-46.5 -19.5h-12q-28 0 -47 19t-19 47v628l-413 629q-15 23 -11.5 49zM264 1573v12q0 28 19 47t47 19h12 q28 0 47 -19t19 -47v-12q0 -28 -19 -47t-47 -19h-12q-28 0 -47 19t-19 47zM623 1573v12q0 28 18.5 47t46.5 19h12q28 0 47 -19t19 -47v-12q0 -28 -19 -47t-47 -19h-12q-28 0 -46.5 19t-18.5 47z" />
<glyph unicode="&#x2c6;" horiz-adv-x="839" d="M187 1265.5q-5 24.5 12 45.5l168 186q25 33 53 33t53 -33l166 -186q17 -21 13 -45.5t-25 -38.5t-43.5 -9.5t-40.5 23.5l-123 143l-123 -143q-18 -19 -40.5 -23.5t-43.5 9.5t-26 38.5z" />
<glyph unicode="&#x2dc;" horiz-adv-x="940" d="M181.5 1333q-2.5 12 4.5 24t13.5 19t19.5 19q53 47 123 47q34 0 64.5 -9t71 -27.5t59.5 -25.5q27 -10 51 -10q17 0 29 4t17.5 8t22.5 17q44 30 68 6l10 -8q15 -15 14 -38t-18 -36q-38 -33 -67.5 -47t-75.5 -14q-31 0 -62 9t-71.5 27.5t-57.5 24.5q-30 10 -51 10 q-26 0 -40.5 -6.5t-35.5 -23.5q-37 -33 -67 -3l-8 9q-11 12 -13.5 24z" />
<glyph unicode="&#x2000;" horiz-adv-x="969" />
<glyph unicode="&#x2001;" horiz-adv-x="1939" />
<glyph unicode="&#x2002;" horiz-adv-x="969" />
<glyph unicode="&#x2003;" horiz-adv-x="1939" />
<glyph unicode="&#x2004;" horiz-adv-x="646" />
<glyph unicode="&#x2005;" horiz-adv-x="484" />
<glyph unicode="&#x2006;" horiz-adv-x="323" />
<glyph unicode="&#x2007;" horiz-adv-x="323" />
<glyph unicode="&#x2008;" horiz-adv-x="242" />
<glyph unicode="&#x2009;" horiz-adv-x="387" />
<glyph unicode="&#x200a;" horiz-adv-x="107" />
<glyph unicode="&#x2010;" horiz-adv-x="733" d="M80 496v12q0 28 18.5 46.5t46.5 18.5h443q28 0 46.5 -18.5t18.5 -46.5v-12q0 -28 -18.5 -47t-46.5 -19h-443q-28 0 -46.5 19t-18.5 47z" />
<glyph unicode="&#x2011;" horiz-adv-x="733" d="M80 496v12q0 28 18.5 46.5t46.5 18.5h443q28 0 46.5 -18.5t18.5 -46.5v-12q0 -28 -18.5 -47t-46.5 -19h-443q-28 0 -46.5 19t-18.5 47z" />
<glyph unicode="&#x2012;" horiz-adv-x="733" d="M80 496v12q0 28 18.5 46.5t46.5 18.5h443q28 0 46.5 -18.5t18.5 -46.5v-12q0 -28 -18.5 -47t-46.5 -19h-443q-28 0 -46.5 19t-18.5 47z" />
<glyph unicode="&#x2013;" horiz-adv-x="1019" d="M80 496v12q0 28 18.5 46.5t46.5 18.5h729q28 0 47 -18.5t19 -46.5v-12q0 -28 -19 -47t-47 -19h-729q-28 0 -46.5 19t-18.5 47z" />
<glyph unicode="&#x2014;" horiz-adv-x="1449" d="M80 496v12q0 28 18.5 46.5t46.5 18.5h1160q28 0 46.5 -18.5t18.5 -46.5v-12q0 -28 -18.5 -47t-46.5 -19h-1160q-28 0 -46.5 19t-18.5 47z" />
<glyph unicode="&#x2018;" horiz-adv-x="546" d="M162 1141l88 250q9 25 33.5 36.5t50.5 2.5l10 -5q26 -9 38 -33.5t3 -50.5l-88 -247q-9 -26 -33 -37t-51 -2l-12 4q-25 7 -36.5 32t-2.5 50z" />
<glyph unicode="&#x2019;" horiz-adv-x="546" d="M162 1141l88 250q9 25 33.5 36.5t50.5 2.5l10 -5q26 -9 38 -33.5t3 -50.5l-88 -247q-9 -26 -33 -37t-51 -2l-12 4q-25 7 -36.5 32t-2.5 50z" />
<glyph unicode="&#x201a;" horiz-adv-x="546" d="M162 -145l88 247q9 25 33.5 36.5t50.5 2.5l10 -4q26 -9 38 -33.5t3 -50.5l-88 -248q-9 -25 -33.5 -36t-50.5 -2l-12 4q-25 9 -36.5 33.5t-2.5 50.5z" />
<glyph unicode="&#x201c;" horiz-adv-x="796" d="M162 1141l88 250q9 25 33.5 36.5t50.5 2.5l10 -5q26 -9 38 -33.5t3 -50.5l-88 -247q-9 -26 -33 -37t-51 -2l-12 4q-25 7 -36.5 32t-2.5 50zM412 1141l88 250q9 25 33.5 36.5t50.5 2.5l12 -5q25 -9 36.5 -33.5t2.5 -50.5l-88 -247q-9 -26 -33 -37t-51 -2l-10 4 q-26 7 -38 32t-3 50z" />
<glyph unicode="&#x201d;" horiz-adv-x="796" d="M162 1141l88 250q9 25 33.5 36.5t50.5 2.5l10 -5q26 -9 38 -33.5t3 -50.5l-88 -247q-9 -26 -33 -37t-51 -2l-12 4q-25 7 -36.5 32t-2.5 50zM412 1141l88 250q9 25 33.5 36.5t50.5 2.5l12 -5q25 -9 36.5 -33.5t2.5 -50.5l-88 -247q-9 -26 -33 -37t-51 -2l-10 4 q-26 7 -38 32t-3 50z" />
<glyph unicode="&#x201e;" horiz-adv-x="798" d="M162 -145l88 247q9 25 33.5 36.5t50.5 2.5l10 -4q26 -9 38 -33.5t3 -50.5l-88 -248q-9 -25 -33.5 -36t-50.5 -2l-12 4q-25 9 -36.5 33.5t-2.5 50.5zM414 -145l88 247q9 25 33.5 36.5t50.5 2.5l10 -4q26 -9 38 -33.5t3 -50.5l-88 -248q-9 -25 -33.5 -36t-50.5 -2l-12 4 q-25 9 -36.5 33.5t-2.5 50.5z" />
<glyph unicode="&#x2022;" horiz-adv-x="1157" d="M211 645q0 149 104.5 254t253.5 105h19q148 0 253 -105t105 -254t-105 -253.5t-253 -104.5h-19q-149 0 -253.5 104.5t-104.5 253.5z" />
<glyph unicode="&#x2026;" horiz-adv-x="1212" d="M158 82v14q0 35 24 58.5t58 23.5h14q35 0 58.5 -23.5t23.5 -58.5v-14h2q0 -34 -24 -58t-58 -24h-16q-34 0 -58 24t-24 58zM516 82v14q0 35 24 58.5t58 23.5h14q35 0 58.5 -23.5t23.5 -58.5v-14h2q0 -34 -24 -58t-58 -24h-16q-34 0 -58 24t-24 58zM874 82v14q0 35 24 58.5 t58 23.5h15q35 0 59.5 -23.5t24.5 -58.5v-14q0 -34 -24 -58t-58 -24h-17q-34 0 -58 24t-24 58z" />
<glyph unicode="&#x202f;" horiz-adv-x="387" />
<glyph unicode="&#x2039;" horiz-adv-x="679" d="M81 550q0 25 19 44l318 317q19 18 43 18t43 -18q17 -17 17 -42t-19 -42l-277 -278l277 -277q18 -18 18 -42t-18 -42t-42 -18t-42 18l-318 318q-19 19 -19 44z" />
<glyph unicode="&#x203a;" horiz-adv-x="679" d="M159 869q0 25 17 42q19 18 43 18t43 -18l318 -317q19 -19 19 -44t-19 -44l-318 -318q-18 -18 -42 -18t-42 18t-18 42t18 42l277 277l-277 278q-19 17 -19 42z" />
<glyph unicode="&#x205f;" horiz-adv-x="484" />
<glyph unicode="&#x20ac;" horiz-adv-x="1236" d="M96 586q0 25 18 42t44 17h80v143h-80q-26 0 -44 17.5t-18 42.5t18 42t44 17h80v97q0 178 126 304t304 126q158 0 279.5 -104t146.5 -259q3 -26 -18.5 -46.5t-49.5 -20.5h-12q-51 0 -64 55q-23 104 -100 167.5t-182 63.5q-119 0 -203 -84t-84 -202v-97h399q26 0 44 -17 t18 -42t-18 -42.5t-44 -17.5h-399v-143h399q26 0 44 -18t18 -43t-18 -41.5t-44 -16.5h-399v-96q0 -118 84.5 -202.5t202.5 -84.5q102 0 180 63t100 159q6 28 24 46.5t44 18.5h12q29 0 49.5 -23.5t14.5 -62.5q-26 -139 -146.5 -241.5t-277.5 -102.5q-178 0 -304 126t-126 304 v96h-80q-26 0 -44 17.5t-18 42.5z" />
<glyph unicode="&#x2122;" horiz-adv-x="1509" d="M74 1378v8q0 20 13.5 34t33.5 14h524q20 0 33.5 -14t13.5 -34v-8q0 -20 -13.5 -33.5t-33.5 -13.5h-211v-573q0 -19 -13.5 -33t-33.5 -14h-8q-20 0 -33.5 14t-13.5 33v573h-211q-20 0 -33.5 13.5t-13.5 33.5zM770 758v628q0 20 14 34t33 14h8h2q24 0 43 -31l201 -320 l10 -28l11 28l198 320q19 31 43 31h4h6q19 0 33.5 -14t14.5 -34v-628q0 -19 -14.5 -33t-33.5 -14h-10q-19 0 -33 14t-14 33v446l-153 -248q-3 -6 -9 -13.5t-19 -16t-26 -8.5q-23 0 -51 38l-154 248v-446q0 -19 -14 -33t-33 -14h-10q-19 0 -33 14t-14 33z" />
<glyph unicode="&#xe000;" horiz-adv-x="1003" d="M0 0v1004h1004v-1004h-1004z" />
<glyph unicode="&#xfb01;" horiz-adv-x="1087" d="M88 926v12q0 28 19 47t47 19h77v143q0 119 84.5 203t202.5 84h43q27 0 46.5 -19.5t19.5 -46.5v-12q0 -27 -19.5 -46.5t-46.5 -19.5h-43q-60 0 -101.5 -41.5t-41.5 -101.5v-143h471q26 0 45.5 -19t19.5 -47v-872q0 -28 -19.5 -47t-45.5 -19h-12q-28 0 -47 19t-19 47v794 h-393v-794q0 -28 -19 -47t-47 -19h-12q-28 0 -47 19t-19 47v794h-77q-28 0 -47 19t-19 47zM760 1348v14q0 29 21 50.5t50 21.5h15q29 0 50.5 -21.5t21.5 -50.5v-14q0 -29 -21.5 -50.5t-50.5 -21.5h-15q-29 0 -50 21.5t-21 50.5z" />
<glyph unicode="&#xfb02;" horiz-adv-x="1124" d="M88 926v12q0 28 19 47t47 19h77v143q0 119 84.5 203t202.5 84h330q28 0 46.5 -19t18.5 -47v-1153q0 -29 21.5 -50.5t50.5 -21.5h6q28 0 47 -18.5t19 -46.5v-12q0 -28 -19 -47t-47 -19h-6q-89 0 -152 63t-63 152v1075h-252q-60 0 -101.5 -41.5t-41.5 -101.5v-143h186 q26 0 45 -19t19 -47v-12q0 -28 -19 -47t-45 -19h-186v-794q0 -28 -19 -47t-47 -19h-12q-28 0 -47 19t-19 47v794h-77q-28 0 -47 19t-19 47z" />
</font>
</defs>
</svg>
